<?xml version="1.0" encoding="utf-8"?>
<!-- Generator: Adobe Illustrator 15.0.0, SVG Export Plug-In . SVG Version: 6.00 Build 0)  -->
<!DOCTYPE svg PUBLIC "-//W3C//DTD SVG 1.1//EN" "http://www.w3.org/Graphics/SVG/1.1/DTD/svg11.dtd">
<svg version="1.1" id="레이어_1" xmlns="http://www.w3.org/2000/svg" xmlns:xlink="http://www.w3.org/1999/xlink" x="0px"
	 y="0px" width="368.5px" height="566.93px" viewBox="0 0 368.5 566.93" enable-background="new 0 0 368.5 566.93"
	 xml:space="preserve">
<g>
	<g>
		<path d="M122.662,454.209c0,3.713-3.193,6.719-7.132,6.719c-3.94,0-7.138-3.006-7.138-6.719c0-3.712,3.197-6.723,7.138-6.723
			C119.468,447.486,122.662,450.497,122.662,454.209z"/>
		<path d="M115.53,462.311c-4.696,0-8.518-3.635-8.518-8.102s3.821-8.102,8.518-8.102c4.692,0,8.512,3.635,8.512,8.102
			S120.222,462.311,115.53,462.311z M115.53,448.866c-3.175,0-5.759,2.396-5.759,5.343c0,2.943,2.584,5.34,5.759,5.34
			c3.174,0,5.753-2.396,5.753-5.34C121.283,451.262,118.704,448.866,115.53,448.866z"/>
	</g>
	<g>
		<path fill="#231815" d="M267.1,402.593c5.402,1.514,9.542,3.732,12.409,6.659c2.874,2.924,4.31,6.453,4.31,10.584
			c0,3.93-1.353,7.316-4.065,10.158c-2.712,2.844-6.626,5.041-11.748,6.597c-5.123,1.555-11.219,2.393-18.287,2.517v13.252h51.433
			v3.563H194.676v-3.563h51.428v-13.252c-7.067-0.124-13.175-0.952-18.315-2.486c-5.143-1.533-9.078-3.722-11.809-6.565
			c-2.729-2.845-4.098-6.248-4.098-10.22c0-4.131,1.437-7.66,4.309-10.584c2.869-2.927,7.001-5.146,12.381-6.659
			c5.382-1.515,11.786-2.271,19.22-2.271C255.26,400.322,261.695,401.078,267.1,402.593z M283.698,499.248h-71.213v-30.314h71.213
			V499.248z M231.015,405.721c-4.843,1.311-8.6,3.183-11.268,5.617c-2.676,2.434-4.009,5.268-4.009,8.498
			c0,3.152,1.333,5.913,4.009,8.285c2.668,2.373,6.425,4.207,11.268,5.494c4.835,1.287,10.432,1.932,16.776,1.932
			c6.347,0,11.948-0.645,16.812-1.932c4.856-1.287,8.631-3.121,11.321-5.494c2.689-2.372,4.038-5.133,4.038-8.285
			c0-3.23-1.349-6.064-4.038-8.498c-2.69-2.435-6.465-4.307-11.321-5.617c-4.863-1.307-10.465-1.963-16.812-1.963
			C241.446,403.758,235.85,404.414,231.015,405.721z M216.341,496.063h63.621v-23.943h-63.621V496.063z"/>
		<path d="M283.698,502.01h-71.213c-1.528,0-2.764-1.236-2.764-2.762v-30.314c0-1.527,1.235-2.764,2.764-2.764h71.213
			c1.525,0,2.761,1.236,2.761,2.764v30.314C286.459,500.773,285.224,502.01,283.698,502.01z M219.1,493.301h58.104v-18.422H219.1
			V493.301z M301.15,458.682H194.676c-1.526,0-2.762-1.234-2.762-2.76v-3.563c0-1.525,1.235-2.76,2.762-2.76h48.669v-7.816
			c-6.178-0.275-11.664-1.119-16.346-2.518c-5.579-1.666-9.959-4.119-13.011-7.3c-3.23-3.362-4.865-7.443-4.865-12.13
			c0-4.859,1.712-9.072,5.096-12.519c3.198-3.259,7.775-5.742,13.605-7.381c5.595-1.575,12.314-2.376,19.967-2.376
			c7.688,0,14.437,0.798,20.054,2.375c5.853,1.64,10.44,4.123,13.636,7.383c3.384,3.443,5.097,7.654,5.097,12.518
			c0,4.646-1.624,8.705-4.828,12.063c-3.029,3.178-7.385,5.646-12.941,7.333c-4.668,1.418-10.152,2.273-16.331,2.551v7.816h48.674
			c1.526,0,2.761,1.234,2.761,2.76v3.563C303.911,457.447,302.677,458.682,301.15,458.682z M247.791,406.518
			c-6.069,0-11.472,0.628-16.058,1.867c-4.391,1.19-7.799,2.869-10.128,4.992c-2.089,1.902-3.104,4.016-3.104,6.459
			c0,2.35,1.005,4.383,3.078,6.221c2.331,2.075,5.744,3.721,10.144,4.892c4.586,1.22,9.99,1.839,16.068,1.839
			c6.074,0,11.491-0.619,16.104-1.842c4.417-1.17,7.848-2.816,10.203-4.895c2.087-1.841,3.104-3.875,3.104-6.215
			c0-2.436-1.024-4.547-3.132-6.451c-2.351-2.128-5.778-3.809-10.188-5C259.271,407.148,253.856,406.518,247.791,406.518z"/>
	</g>
	<g>
		<g>
			<path d="M153.883,409.537h-76.32v27.885h77.817v2.27H75.675v-32.425h78.208V409.537z"/>
			<path d="M155.38,442.865H75.675c-1.752,0-3.175-1.42-3.175-3.174v-32.425c0-1.753,1.423-3.173,3.175-3.173h78.208
				c1.75,0,3.176,1.42,3.176,3.173v2.271c0,1.754-1.426,3.175-3.176,3.175H80.741v21.534h74.64c1.754,0,3.176,1.421,3.176,3.176
				v2.27C158.556,441.445,157.134,442.865,155.38,442.865z"/>
		</g>
	</g>
	<g>
		<path d="M159.713,499.285c-0.759,0-1.53-0.176-2.249-0.559l-42.118-22.205l-41.737,22.199c-2.361,1.258-5.285,0.359-6.531-1.998
			c-1.254-2.354-0.359-5.277,1.998-6.533l43.993-23.398c1.412-0.752,3.103-0.754,4.521-0.006l44.381,23.398
			c2.359,1.24,3.267,4.164,2.02,6.525C163.125,498.35,161.448,499.285,159.713,499.285z"/>
	</g>
</g>
<g>
	<g>
		<polygon points="314.799,302.537 185.732,302.019 185.748,297.911 310.699,298.415 311.035,45.012 57.455,45.012 57.455,170.958 
			53.348,170.958 53.348,40.906 315.147,40.906 		"/>
		<polygon points="318.902,306.661 181.609,306.109 181.658,293.789 306.597,294.293 306.921,49.119 61.561,49.119 61.561,175.065 
			49.242,175.065 49.242,36.799 319.259,36.799 		"/>
	</g>
	<polygon fill="#00AF50" points="249.298,209.449 249.298,225.053 119.104,225.053 119.104,118.382 249.298,118.382 
		249.298,132.589 134.475,132.823 134.709,209.916 	"/>
</g>
</svg>
