<?xml version="1.0" encoding="utf-8"?>
<!-- Generator: Adobe Illustrator 15.0.0, SVG Export Plug-In . SVG Version: 6.00 Build 0)  -->
<!DOCTYPE svg PUBLIC "-//W3C//DTD SVG 1.1//EN" "http://www.w3.org/Graphics/SVG/1.1/DTD/svg11.dtd">
<svg version="1.1" id="레이어_1" xmlns="http://www.w3.org/2000/svg" xmlns:xlink="http://www.w3.org/1999/xlink" x="0px"
	 y="0px" width="368.5px" height="566.93px" viewBox="0 0 368.5 566.93" enable-background="new 0 0 368.5 566.93"
	 xml:space="preserve">
<g>
	<g>
		<polygon points="314.799,302.537 185.732,302.019 185.748,297.911 310.699,298.415 311.035,45.012 57.455,45.012 57.455,170.958 
			53.348,170.958 53.348,40.906 315.147,40.906 		"/>
		<polygon points="318.902,306.661 181.609,306.109 181.658,293.789 306.597,294.293 306.921,49.119 61.561,49.119 61.561,175.065 
			49.242,175.065 49.242,36.799 319.259,36.799 		"/>
	</g>
	<polygon fill="#00AF50" points="249.298,209.449 249.298,225.053 119.104,225.053 119.104,118.382 249.298,118.382 
		249.298,132.589 134.475,132.823 134.709,209.916 	"/>
</g>
<g>
	<g>
		<path d="M67.933,442.47v-56.132h17.6c5.352,0,9.944,1.113,13.783,3.335c3.836,2.222,6.776,5.426,8.817,9.613
			s3.062,9.179,3.062,14.965c0,5.868-1.039,10.921-3.118,15.158c-2.084,4.237-5.121,7.474-9.113,9.707
			c-3.992,2.24-8.78,3.354-14.361,3.354H67.933z M84.292,437.511c4.704,0,8.659-0.927,11.863-2.775
			c3.205-1.848,5.612-4.505,7.23-7.983c1.611-3.479,2.408-7.641,2.383-12.501c0-4.81-0.784-8.923-2.346-12.345
			c-1.562-3.429-3.876-6.049-6.938-7.872s-6.816-2.731-11.263-2.731H73.437v46.208H84.292z"/>
		<path d="M84.603,444.063h-16.67c-0.88,0-1.593-0.71-1.593-1.594v-56.132c0-0.878,0.712-1.594,1.593-1.594h17.6
			c5.613,0,10.516,1.195,14.58,3.554c4.097,2.37,7.277,5.83,9.452,10.292c2.141,4.387,3.223,9.657,3.223,15.661
			c0,6.086-1.101,11.419-3.282,15.861c-2.218,4.512-5.504,8.015-9.763,10.397C95.532,442.868,90.436,444.063,84.603,444.063z
			 M69.526,440.877h15.077c5.283,0,9.854-1.058,13.581-3.148c3.69-2.06,6.534-5.096,8.462-9.022c1.96-4.001,2.956-8.86,2.956-14.455
			c0-5.519-0.977-10.316-2.9-14.268c-1.892-3.877-4.648-6.882-8.186-8.93c-3.575-2.071-7.943-3.123-12.983-3.123H69.526V440.877z
			 M84.292,439.104H73.437c-0.877,0-1.593-0.716-1.593-1.593v-46.208c0-0.884,0.715-1.593,1.593-1.593h11.785
			c4.714,0,8.777,0.996,12.078,2.956c3.332,1.984,5.88,4.872,7.572,8.574c1.649,3.621,2.489,7.996,2.489,13.011
			c0.025,5.06-0.828,9.496-2.533,13.173c-1.749,3.765-4.399,6.684-7.877,8.693C93.516,438.096,89.257,439.104,84.292,439.104z
			 M75.029,435.918h9.262c4.399,0,8.124-0.865,11.067-2.563c2.943-1.692,5.096-4.076,6.58-7.274
			c1.509-3.242,2.262-7.225,2.237-11.822c0-4.562-0.74-8.494-2.203-11.692c-1.419-3.104-3.541-5.52-6.303-7.162
			c-2.8-1.667-6.316-2.508-10.448-2.508H75.029V435.918z"/>
	</g>
	<g>
		<path d="M123.231,421.73c2.803-1.96,6.571-3.136,11.3-3.528c1.808-0.124,3.817-0.248,6.026-0.366
			c2.212-0.119,4.079-0.212,5.603-0.293v-3.988c0-2.844-0.887-5.065-2.654-6.671c-1.773-1.599-4.3-2.401-7.579-2.401
			c-2.713,0-4.972,0.572-6.764,1.724c-1.798,1.15-2.956,2.694-3.472,4.636h-5.503c0.283-2.197,1.142-4.139,2.579-5.818
			c1.431-1.68,3.313-2.98,5.638-3.896c2.327-0.914,4.938-1.375,7.834-1.375c2.427,0,4.785,0.417,7.075,1.257
			c2.284,0.84,4.209,2.321,5.774,4.443c1.562,2.115,2.346,4.972,2.346,8.562v28.455h-5.274v-6.509h-0.308
			c-0.983,2.066-2.573,3.821-4.77,5.271c-2.197,1.444-4.925,2.172-8.18,2.172c-2.585,0-4.928-0.504-7.038-1.512
			c-2.103-1.008-3.771-2.471-5-4.381s-1.842-4.188-1.842-6.826C119.025,426.684,120.428,423.697,123.231,421.73z M126.894,436.621
			c1.733,1.369,3.995,2.054,6.786,2.054c2.504,0,4.704-0.548,6.589-1.649c1.889-1.102,3.338-2.576,4.362-4.437
			c1.021-1.86,1.531-3.92,1.531-6.166v-4.499l-10.855,0.777c-3.696,0.262-6.453,1.083-8.276,2.483
			c-1.823,1.394-2.731,3.304-2.731,5.736C124.299,433.348,125.164,435.246,126.894,436.621z"/>
		<path d="M132.904,444.996c-2.813,0-5.41-0.56-7.722-1.667c-2.371-1.139-4.274-2.807-5.656-4.96
			c-1.388-2.165-2.094-4.747-2.094-7.685c0-4.536,1.646-7.989,4.888-10.254c3.024-2.122,7.087-3.404,12.081-3.814
			c1.839-0.131,3.855-0.256,6.076-0.367l4.091-0.218v-2.477c0-2.396-0.697-4.188-2.131-5.488c-1.462-1.319-3.652-1.991-6.508-1.991
			c-2.393,0-4.381,0.491-5.905,1.475c-1.462,0.934-2.377,2.146-2.791,3.702c-0.183,0.697-0.818,1.183-1.54,1.183h-5.503
			c-0.458,0-0.893-0.199-1.198-0.542c-0.302-0.348-0.442-0.803-0.38-1.257c0.324-2.501,1.313-4.735,2.943-6.646
			c1.602-1.873,3.708-3.335,6.269-4.343c4.62-1.823,10.681-2.091,16.039-0.131c2.57,0.945,4.76,2.62,6.508,4.99
			c1.761,2.39,2.657,5.588,2.657,9.508v28.455c0,0.884-0.716,1.594-1.593,1.594h-5.274c-0.88,0-1.593-0.71-1.593-1.594v-2.016
			c-0.765,0.766-1.637,1.469-2.61,2.109C139.506,444.175,136.46,444.996,132.904,444.996z M135.929,402.889
			c3.671,0,6.583,0.946,8.646,2.813c2.109,1.91,3.18,4.555,3.18,7.853v3.988c0,0.853-0.663,1.55-1.512,1.593l-5.597,0.293
			c-2.203,0.111-4.2,0.236-6.001,0.367c-4.402,0.36-7.943,1.449-10.5,3.241c-2.371,1.662-3.525,4.163-3.525,7.647
			c0,2.315,0.535,4.325,1.59,5.961c1.073,1.674,2.495,2.919,4.35,3.809c1.879,0.896,4.013,1.356,6.347,1.356
			c2.925,0,5.379-0.641,7.305-1.91c1.587-1.046,2.828-2.284,3.69-3.684c-0.821,0.834-1.767,1.567-2.831,2.184
			c-2.116,1.238-4.604,1.867-7.389,1.867c-3.146,0-5.759-0.81-7.772-2.396c-2.125-1.687-3.201-4.026-3.201-6.951
			c0-2.942,1.129-5.301,3.357-7.006c2.087-1.6,5.077-2.521,9.131-2.807l10.852-0.771c0.436-0.031,0.877,0.124,1.201,0.423
			s0.507,0.722,0.507,1.164v4.499c0,2.507-0.582,4.841-1.727,6.932c-0.205,0.379-0.429,0.74-0.672,1.089
			c0.964-0.305,2.399,0.467,2.399,1.518v4.916h2.087v-26.862c0-3.223-0.685-5.787-2.035-7.616c-1.388-1.885-3.04-3.154-5.043-3.889
			c-4.626-1.699-9.872-1.438-13.773,0.1c-2.065,0.814-3.752,1.979-5.012,3.447c-0.831,0.977-1.428,2.028-1.808,3.191h2.383
			c0.734-1.785,1.991-3.26,3.752-4.38C130.35,403.555,132.917,402.889,135.929,402.889z M144.568,423.635l-9.147,0.653
			c-3.366,0.236-5.865,0.965-7.42,2.159c-1.418,1.083-2.109,2.545-2.109,4.474c0,1.93,0.653,3.386,1.991,4.449
			c1.438,1.133,3.385,1.711,5.796,1.711c2.212,0,4.16-0.485,5.784-1.431c1.652-0.965,2.884-2.215,3.771-3.833
			c0.883-1.611,1.334-3.429,1.334-5.395V423.635z"/>
	</g>
	<g>
		<path d="M183.145,406.088c-1.603-1.12-3.721-1.687-6.359-1.687c-1.808,0-3.416,0.311-4.822,0.934
			c-1.413,0.622-2.508,1.475-3.298,2.557c-0.787,1.089-1.182,2.303-1.182,3.646c0,3.279,2.508,5.532,7.523,6.745l6.434,1.55
			c7.081,1.755,10.622,5.481,10.622,11.163c0,2.401-0.629,4.536-1.88,6.396c-1.257,1.86-3.062,3.316-5.429,4.362
			c-2.365,1.045-5.174,1.567-8.432,1.567c-4.496,0-8.08-0.995-10.755-2.98c-2.676-1.991-4.287-4.847-4.829-8.568h5.507
			c0.411,2.271,1.465,3.989,3.158,5.152c1.692,1.164,3.973,1.749,6.841,1.749c2.094,0,3.93-0.306,5.507-0.915
			c1.574-0.604,2.794-1.462,3.662-2.576c0.865-1.114,1.298-2.402,1.298-3.877c0-3.409-2.427-5.687-7.287-6.819l-6.434-1.556
			c-3.516-0.797-6.204-2.159-8.064-4.088c-1.861-1.923-2.791-4.281-2.791-7.075c0-2.296,0.625-4.362,1.879-6.186
			c1.253-1.816,3.012-3.248,5.273-4.28c2.259-1.033,4.838-1.55,7.734-1.55c2.713,0.025,5.109,0.498,7.19,1.413
			c2.082,0.92,3.74,2.208,4.981,3.876c1.238,1.668,2.017,3.603,2.327,5.8h-5.273C185.783,408.801,184.747,407.214,183.145,406.088z"
			/>
		<path d="M176.321,444.915c-4.822,0-8.761-1.107-11.708-3.298c-3.018-2.246-4.85-5.481-5.451-9.613
			c-0.068-0.46,0.068-0.927,0.374-1.275c0.298-0.349,0.74-0.548,1.201-0.548h5.507c0.769,0,1.428,0.548,1.565,1.307
			c0.339,1.854,1.154,3.205,2.495,4.126c1.416,0.977,3.413,1.468,5.939,1.468c1.885,0,3.547-0.273,4.935-0.809
			c1.294-0.498,2.296-1.194,2.98-2.065c0.644-0.834,0.958-1.78,0.958-2.9c0-1.654-0.629-4.001-6.055-5.27l-6.446-1.556
			c-3.787-0.859-6.767-2.384-8.836-4.53c-2.15-2.222-3.239-4.979-3.239-8.183c0-2.62,0.725-5.003,2.159-7.087
			c1.416-2.054,3.407-3.678,5.92-4.829c2.458-1.12,5.283-1.692,8.4-1.692c2.937,0.031,5.569,0.548,7.834,1.549
			c2.324,1.027,4.213,2.502,5.612,4.381c1.313,1.768,2.172,3.809,2.558,6.073c0.094,0.205,0.149,0.436,0.149,0.679
			c0,0.89-0.784,1.536-1.624,1.593c-0.013,0-0.021,0-0.031,0h-5.273c-0.743,0-1.387-0.517-1.552-1.238
			c-0.379-1.661-1.186-2.906-2.464-3.802c-1.322-0.928-3.155-1.4-5.444-1.4c-1.574,0-2.98,0.268-4.182,0.797
			c-1.157,0.51-2.022,1.176-2.647,2.041c-0.591,0.809-0.88,1.698-0.88,2.706c0,0.909,0,3.672,6.303,5.196l6.434,1.549
			c9.788,2.427,11.841,8.258,11.841,12.713c0,2.719-0.725,5.171-2.153,7.286c-1.419,2.109-3.472,3.765-6.104,4.929
			C182.843,444.343,179.791,444.915,176.321,444.915z M162.694,433.366c0.669,2.415,1.929,4.288,3.824,5.694
			c2.38,1.773,5.681,2.669,9.803,2.669c3.021,0,5.641-0.479,7.788-1.431c2.072-0.921,3.671-2.197,4.75-3.796
			c1.083-1.605,1.608-3.404,1.608-5.507c0-4.897-3.08-8.046-9.414-9.62l-6.421-1.543c-7.225-1.749-8.743-5.476-8.743-8.295
			c0-1.68,0.501-3.223,1.487-4.579c0.952-1.313,2.277-2.347,3.938-3.08c1.612-0.71,3.451-1.07,5.47-1.07
			c2.956,0,5.404,0.665,7.274,1.979c1.586,1.113,2.719,2.613,3.378,4.461h2.104c-0.361-1.194-0.902-2.283-1.627-3.254
			c-1.083-1.456-2.505-2.558-4.347-3.373c-1.867-0.821-4.076-1.25-6.564-1.275c-2.635,0-5.015,0.474-7.056,1.406
			c-1.985,0.909-3.538,2.166-4.624,3.733c-1.073,1.568-1.596,3.292-1.596,5.283c0,2.383,0.769,4.337,2.343,5.968
			c1.634,1.692,4.082,2.918,7.271,3.646l6.456,1.556c7.031,1.643,8.506,5.457,8.506,8.369c0,1.823-0.548,3.46-1.63,4.854
			c-1.046,1.345-2.508,2.377-4.35,3.087c-1.755,0.678-3.802,1.021-6.08,1.021c-3.183,0-5.787-0.685-7.744-2.028
			c-1.702-1.17-2.878-2.807-3.51-4.873H162.694z"/>
	</g>
	<g>
		<path d="M208.246,440.591c-2.832-1.823-5.034-4.381-6.608-7.672c-1.581-3.298-2.364-7.063-2.364-11.3
			c0-4.27,0.783-8.053,2.364-11.362c1.574-3.305,3.783-5.887,6.627-7.734c2.844-1.849,6.073-2.77,9.691-2.77s6.842,0.921,9.673,2.77
			c2.831,1.848,5.027,4.43,6.589,7.734c1.563,3.31,2.347,7.093,2.347,11.362c0,4.237-0.784,8.002-2.347,11.3
			c-1.562,3.291-3.758,5.849-6.589,7.672s-6.055,2.731-9.673,2.731C214.313,443.322,211.077,442.414,208.246,440.591z
			 M225.127,436.328c2.017-1.512,3.547-3.559,4.593-6.147c1.051-2.582,1.574-5.438,1.574-8.562c0-3.13-0.523-5.992-1.574-8.588
			c-1.046-2.601-2.576-4.66-4.593-6.185c-2.016-1.524-4.405-2.29-7.171-2.29c-2.791,0-5.202,0.766-7.23,2.29
			s-3.565,3.584-4.614,6.185c-1.045,2.596-1.568,5.458-1.568,8.588c0,3.123,0.523,5.979,1.568,8.562
			c1.049,2.589,2.586,4.636,4.614,6.147c2.028,1.513,4.439,2.266,7.23,2.266C220.722,438.594,223.111,437.841,225.127,436.328z"/>
		<path d="M217.956,444.915c-3.936,0-7.492-1.001-10.572-2.98c-3.07-1.979-5.488-4.778-7.184-8.331
			c-1.674-3.491-2.521-7.523-2.521-11.984c0-4.487,0.847-8.544,2.521-12.047c1.695-3.56,4.119-6.385,7.196-8.382
			c3.089-2.01,6.643-3.03,10.56-3.03s7.464,1.021,10.544,3.03c3.062,1.997,5.476,4.822,7.162,8.388
			c1.655,3.503,2.495,7.554,2.495,12.041c0,4.455-0.84,8.487-2.495,11.978c-1.692,3.554-4.101,6.359-7.175,8.332
			C225.413,443.914,221.866,444.915,217.956,444.915z M217.956,401.346c-3.289,0-6.257,0.847-8.823,2.514
			c-2.579,1.674-4.617,4.058-6.058,7.082c-1.469,3.073-2.209,6.67-2.209,10.678c0,3.981,0.74,7.547,2.209,10.608
			c1.438,3.012,3.466,5.37,6.032,7.025c2.558,1.643,5.535,2.477,8.849,2.477c3.288,0,6.257-0.834,8.808-2.477
			c2.563-1.648,4.586-4.014,6.018-7.019c1.449-3.062,2.189-6.634,2.189-10.615c0-4.008-0.74-7.604-2.189-10.678
			c-1.432-3.024-3.46-5.408-6.023-7.082C224.206,402.192,221.244,401.346,217.956,401.346z M217.956,440.187
			c-3.13,0-5.884-0.865-8.183-2.582c-2.256-1.681-3.985-3.977-5.137-6.826c-1.12-2.757-1.687-5.843-1.687-9.159
			c0-3.323,0.566-6.409,1.687-9.185c1.151-2.856,2.875-5.165,5.131-6.863c2.302-1.73,5.056-2.607,8.188-2.607
			c3.108,0,5.846,0.877,8.136,2.613c2.24,1.699,3.957,4.007,5.108,6.857c1.12,2.775,1.687,5.861,1.687,9.185
			c0,3.322-0.572,6.402-1.692,9.165c-1.146,2.838-2.869,5.134-5.108,6.82C223.796,439.315,221.064,440.187,217.956,440.187z
			 M217.956,406.149c-2.461,0-4.515,0.647-6.275,1.967c-1.808,1.362-3.146,3.167-4.088,5.507c-0.965,2.396-1.456,5.084-1.456,7.996
			c0,2.905,0.488,5.587,1.452,7.964c0.931,2.303,2.306,4.139,4.089,5.464c1.764,1.319,3.817,1.954,6.278,1.954
			c2.433,0,4.471-0.635,6.219-1.948c1.768-1.331,3.143-3.167,4.07-5.47c0.964-2.377,1.456-5.059,1.456-7.964
			c0-2.912-0.492-5.601-1.456-7.99c-0.934-2.314-2.303-4.169-4.076-5.513C222.421,406.797,220.386,406.149,217.956,406.149z"/>
	</g>
	<g>
		<path d="M245.792,400.375h5.115v6.509h0.466c0.853-2.222,2.266-3.951,4.244-5.195c1.979-1.238,4.337-1.86,7.075-1.86
			c2.818,0,5.183,0.659,7.094,1.979c1.91,1.319,3.348,3.191,4.306,5.619h0.305c0.983-2.378,2.558-4.238,4.71-5.582
			c2.159-1.344,4.755-2.016,7.778-2.016c3.977,0,7.106,1.244,9.377,3.721c2.278,2.482,3.41,6.048,3.41,10.702v28.219h-5.345v-28.144
			c0-3.18-0.815-5.588-2.445-7.23c-1.624-1.637-3.84-2.458-6.627-2.458c-2.041,0-3.809,0.43-5.296,1.301
			c-1.48,0.864-2.613,2.071-3.391,3.621c-0.771,1.55-1.164,3.323-1.164,5.314v27.596h-5.345v-28.604c0-1.835-0.354-3.453-1.07-4.847
			c-0.709-1.395-1.736-2.477-3.08-3.236c-1.344-0.765-2.931-1.145-4.767-1.145c-1.885,0-3.597,0.467-5.121,1.394
			c-1.524,0.934-2.719,2.228-3.584,3.896s-1.301,3.571-1.301,5.719v26.824h-5.345V400.375z"/>
		<path d="M299.672,444.063h-5.345c-0.884,0-1.593-0.71-1.593-1.594v-28.144c0-2.726-0.666-4.779-1.985-6.11
			c-1.325-1.338-3.124-1.985-5.494-1.985c-1.749,0-3.261,0.361-4.493,1.083c-1.226,0.716-2.128,1.68-2.769,2.962
			c-0.659,1.319-0.996,2.868-0.996,4.599v27.596c0,0.884-0.709,1.594-1.593,1.594h-5.345c-0.884,0-1.593-0.71-1.593-1.594v-28.604
			c0-1.574-0.305-2.962-0.896-4.125c-0.566-1.12-1.369-1.96-2.445-2.576c-2.228-1.264-5.749-1.313-8.27,0.23
			c-1.288,0.783-2.265,1.854-2.999,3.267c-0.747,1.431-1.126,3.104-1.126,4.984v26.824c0,0.884-0.71,1.594-1.594,1.594h-5.345
			c-0.884,0-1.593-0.71-1.593-1.594v-42.095c0-0.884,0.709-1.593,1.593-1.593h5.115c0.883,0,1.593,0.709,1.593,1.593v1.792
			c0.672-0.685,1.425-1.294,2.271-1.829c2.222-1.394,4.892-2.104,7.922-2.104c3.13,0,5.824,0.76,8.002,2.259
			c1.431,0.989,2.632,2.259,3.597,3.79c1.032-1.519,2.364-2.788,3.976-3.79c2.408-1.499,5.302-2.259,8.618-2.259
			c4.425,0,7.971,1.426,10.554,4.238c2.538,2.774,3.826,6.738,3.826,11.778v28.219C301.265,443.354,300.556,444.063,299.672,444.063
			z M295.92,440.877h2.159v-26.626c0-4.219-1.008-7.46-2.993-9.626c-1.973-2.152-4.66-3.204-8.201-3.204
			c-2.707,0-5.04,0.597-6.932,1.779c-1.512,0.939-2.669,2.141-3.51,3.652c0.753-0.908,1.662-1.68,2.713-2.29
			c1.724-1.008,3.777-1.518,6.099-1.518c3.217,0,5.83,0.982,7.759,2.931c1.93,1.947,2.906,4.754,2.906,8.351V440.877z
			 M271.652,440.877h2.159v-26.003c0-2.234,0.448-4.257,1.332-6.023c0.006-0.007,0.006-0.013,0.012-0.025
			c-0.777,0.43-2.209,0.05-2.545-0.815c-0.84-2.115-2.091-3.764-3.727-4.891c-1.637-1.126-3.715-1.698-6.191-1.698
			c-2.427,0-4.518,0.547-6.229,1.617c-1.151,0.723-2.066,1.624-2.763,2.726c0.466-0.404,0.964-0.766,1.493-1.089
			c3.484-2.134,8.282-2.109,11.505-0.28c1.611,0.921,2.862,2.229,3.709,3.902c0.827,1.611,1.244,3.484,1.244,5.568V440.877z
			 M247.385,440.877h2.159v-25.231c0-2.396,0.498-4.567,1.481-6.453c0.13-0.242,0.261-0.485,0.404-0.716c-0.019,0-0.037,0-0.057,0
			h-0.466c-0.878,0-1.594-0.709-1.594-1.593v-4.916h-1.929V440.877z"/>
	</g>
	<g>
		<path d="M88.022,473.054c-0.744-0.978-1.736-1.728-2.98-2.253c-1.238-0.52-2.639-0.784-4.188-0.784
			c-1.636,0-3.089,0.28-4.365,0.85c-1.276,0.566-2.268,1.351-2.978,2.364c-0.709,1.012-1.064,2.135-1.064,3.386
			c0,1.704,0.672,3.067,2.016,4.078c1.338,1.018,3.055,1.814,5.14,2.377l3.752,1.052c2.903,0.837,5.277,1.985,7.131,3.453
			c1.852,1.469,2.775,3.569,2.775,6.307c0,1.967-0.507,3.728-1.524,5.289c-1.018,1.559-2.483,2.785-4.393,3.675
			c-1.91,0.896-4.157,1.341-6.739,1.341c-2.452,0-4.605-0.411-6.456-1.223c-1.851-0.818-3.307-1.96-4.365-3.429
			c-1.058-1.469-1.655-3.17-1.789-5.103h3.652c0.115,1.382,0.576,2.57,1.375,3.553c0.799,0.98,1.86,1.73,3.176,2.234
			c1.319,0.51,2.788,0.766,4.406,0.766c1.767,0,3.351-0.299,4.754-0.891c1.4-0.591,2.489-1.425,3.273-2.514
			c0.784-1.082,1.179-2.336,1.179-3.752c0-1.684-0.638-3.012-1.914-3.988c-1.275-0.978-3.142-1.814-5.594-2.518l-4.3-1.25
			c-2.956-0.884-5.202-2.085-6.745-3.6c-1.543-1.521-2.315-3.423-2.315-5.706c0-1.936,0.529-3.649,1.578-5.152
			c1.051-1.5,2.489-2.67,4.315-3.5c1.827-0.837,3.864-1.254,6.117-1.254c2.234,0,4.238,0.41,6.005,1.241
			c1.767,0.824,3.164,1.966,4.191,3.422c1.023,1.463,1.58,3.108,1.664,4.941H89.31C89.192,475.166,88.762,474.03,88.022,473.054z"/>
		<path d="M80.605,505.217c-2.583,0-4.891-0.444-6.87-1.31c-2.016-0.89-3.625-2.159-4.785-3.773
			c-1.17-1.615-1.835-3.513-1.982-5.629c-0.019-0.289,0.081-0.569,0.277-0.774c0.193-0.208,0.467-0.326,0.75-0.326h3.652
			c0.532,0,0.98,0.41,1.024,0.942c0.099,1.183,0.476,2.165,1.148,2.99c0.685,0.837,1.608,1.483,2.75,1.922
			c2.492,0.968,5.961,0.921,8.388-0.108c1.235-0.522,2.165-1.229,2.843-2.172c0.66-0.911,0.98-1.941,0.98-3.148
			c0-1.356-0.492-2.398-1.512-3.17c-1.164-0.896-2.931-1.687-5.246-2.347l-4.312-1.253c-3.105-0.931-5.52-2.229-7.175-3.855
			c-1.736-1.708-2.62-3.88-2.62-6.437c0-2.135,0.591-4.073,1.761-5.74c1.157-1.649,2.747-2.946,4.732-3.849
			c3.898-1.78,9.188-1.786,12.983-0.013c1.923,0.902,3.472,2.172,4.598,3.768c1.077,1.54,1.693,3.282,1.83,5.187
			c0.037,0.108,0.062,0.228,0.062,0.346c0,0.578-0.436,1.076-1.051,1.029c-0.006,0-0.013,0-0.019,0H89.31
			c-0.532,0-0.977-0.404-1.027-0.937c-0.1-1.113-0.451-2.054-1.083-2.881c-0.635-0.84-1.475-1.475-2.558-1.929
			c-2.277-0.968-5.519-0.924-7.741,0.053c-1.111,0.498-1.948,1.157-2.551,2.02c-0.588,0.84-0.877,1.754-0.877,2.794
			c0,1.375,0.529,2.441,1.609,3.26c1.235,0.937,2.843,1.681,4.788,2.206l3.761,1.052c3.027,0.874,5.547,2.097,7.492,3.64
			c2.1,1.662,3.164,4.058,3.164,7.109c0,2.159-0.566,4.132-1.693,5.853c-1.117,1.714-2.738,3.077-4.816,4.041
			C85.745,504.731,83.33,505.217,80.605,505.217z M69.155,495.457c0.237,1.295,0.725,2.458,1.462,3.476
			c0.946,1.31,2.271,2.352,3.948,3.089c1.711,0.757,3.743,1.136,6.039,1.136c2.42,0,4.542-0.417,6.303-1.241
			c1.729-0.806,3.062-1.92,3.963-3.304c0.918-1.406,1.363-2.949,1.363-4.729c0-2.427-0.781-4.225-2.389-5.5
			c-1.736-1.376-4.014-2.474-6.773-3.271l-3.746-1.045c-2.193-0.598-4.042-1.459-5.485-2.552c-1.605-1.213-2.42-2.862-2.42-4.899
			c0-1.456,0.42-2.794,1.251-3.977c0.809-1.16,1.954-2.072,3.397-2.716c2.738-1.211,6.571-1.251,9.374-0.072
			c1.406,0.598,2.548,1.466,3.394,2.583c0.678,0.883,1.133,1.895,1.36,3.005h1.478c-0.202-1.21-0.653-2.305-1.366-3.322
			c-0.918-1.298-2.19-2.34-3.786-3.084c-3.251-1.527-7.903-1.521-11.26,0.02c-1.646,0.749-2.958,1.808-3.898,3.151
			c-0.937,1.341-1.394,2.834-1.394,4.564c0,2.013,0.66,3.64,2.01,4.975c1.416,1.388,3.541,2.517,6.316,3.348l4.293,1.244
			c2.601,0.744,4.539,1.627,5.93,2.686c1.537,1.176,2.321,2.797,2.321,4.81c0,1.634-0.464,3.096-1.375,4.353
			c-0.89,1.235-2.137,2.196-3.708,2.862c-2.915,1.235-6.944,1.294-9.928,0.134c-1.478-0.566-2.691-1.428-3.606-2.545
			c-0.737-0.911-1.232-1.976-1.468-3.177H69.155z"/>
	</g>
	<g>
		<path d="M110.575,479.319h-5.706v17.016c0,1.599,0.367,2.731,1.102,3.4c0.734,0.666,1.686,0.999,2.853,0.999l1.25-0.047
			c0.268-0.034,0.601-0.053,1.002-0.053v3.201c-1.102,0.1-1.954,0.152-2.551,0.152c-1.22,0-2.377-0.265-3.466-0.79
			c-1.095-0.526-1.973-1.298-2.642-2.321c-0.666-1.029-0.999-2.259-0.999-3.693v-17.864h-4.051v-2.899h4.051v-6.509h3.45v6.509
			h5.706V479.319z"/>
		<path d="M108.525,505.012c-1.375,0-2.688-0.299-3.914-0.89c-1.26-0.601-2.287-1.509-3.055-2.691
			c-0.771-1.188-1.164-2.619-1.164-4.247V480.35h-3.024c-0.569,0-1.03-0.461-1.03-1.03v-2.899c0-0.569,0.46-1.027,1.03-1.027h3.024
			v-5.481c0-0.566,0.458-1.023,1.027-1.023h3.45c0.569,0,1.03,0.457,1.03,1.023v5.481h4.676c0.566,0,1.027,0.458,1.027,1.027v2.899
			c0,0.569-0.46,1.03-1.027,1.03h-4.676v15.985c0,0.884,0.131,2.065,0.766,2.638c0.541,0.492,1.248,0.731,2.159,0.731l1.21-0.047
			c0.208-0.027,0.588-0.053,1.042-0.053c0.566,0,1.026,0.464,1.026,1.03v3.201c0,0.532-0.404,0.977-0.936,1.023
			C110.024,504.965,109.144,505.012,108.525,505.012z M98.395,478.29h3.024c0.566,0,1.026,0.463,1.026,1.029v17.864
			c0,1.242,0.274,2.266,0.834,3.13c0.566,0.872,1.294,1.516,2.225,1.961c0.943,0.457,1.963,0.684,3.021,0.684
			c0.392,0,0.902-0.021,1.521-0.071v-1.176l-1.183,0.053c-0.003,0-0.003,0-0.003,0c-1.468,0-2.657-0.426-3.584-1.27
			c-0.952-0.864-1.438-2.265-1.438-4.159v-17.016c0-0.566,0.463-1.029,1.03-1.029h4.676v-0.841h-4.676
			c-0.566,0-1.03-0.463-1.03-1.029v-5.479h-1.394v5.479c0,0.566-0.46,1.029-1.026,1.029h-3.024V478.29z"/>
	</g>
	<g>
		<path d="M133.938,476.42h3.403v27.164h-3.403v-4.499h-0.249c-0.647,1.45-1.674,2.623-3.074,3.516
			c-1.403,0.89-3.062,1.335-4.978,1.335c-1.755,0-3.304-0.386-4.654-1.164c-1.351-0.771-2.408-1.907-3.167-3.4
			c-0.759-1.49-1.139-3.288-1.139-5.395V476.42h3.454v17.311c0,1.369,0.273,2.57,0.828,3.618c0.55,1.039,1.316,1.849,2.302,2.421
			c0.983,0.578,2.109,0.865,3.373,0.865c1.238,0,2.414-0.296,3.528-0.887c1.12-0.592,2.029-1.46,2.729-2.599
			c0.7-1.147,1.049-2.498,1.049-4.066V476.42z"/>
		<path d="M125.637,504.965c-1.929,0-3.665-0.438-5.165-1.297c-1.525-0.874-2.726-2.159-3.572-3.827
			c-0.831-1.633-1.251-3.605-1.251-5.864V476.42c0-0.569,0.46-1.027,1.027-1.027h3.454c0.569,0,1.026,0.458,1.026,1.027v17.311
			c0,1.195,0.24,2.246,0.709,3.137c0.464,0.877,1.089,1.533,1.91,2.019c1.64,0.962,3.952,0.989,5.905-0.047
			c0.961-0.51,1.724-1.234,2.333-2.228c0.597-0.974,0.896-2.165,0.896-3.528V476.42c0-0.569,0.46-1.027,1.027-1.027h3.403
			c0.569,0,1.027,0.458,1.027,1.027v27.164c0,0.575-0.458,1.029-1.027,1.029h-3.403c-0.566,0-1.027-0.454-1.027-1.029v-1.537
			c-0.51,0.532-1.092,1.005-1.746,1.422C129.6,504.461,127.74,504.965,125.637,504.965z M117.706,477.449v16.527
			c0,1.932,0.345,3.587,1.027,4.935c0.672,1.322,1.574,2.293,2.76,2.971c1.188,0.679,2.582,1.023,4.144,1.023
			c1.705,0,3.198-0.392,4.424-1.176c0.977-0.619,1.73-1.375,2.284-2.287c-0.51,0.479-1.08,0.884-1.702,1.211
			c-2.567,1.362-5.659,1.315-7.906,0.006c-1.145-0.672-2.053-1.627-2.688-2.831c-0.628-1.188-0.946-2.57-0.946-4.098v-16.281
			H117.706z M134.967,502.561h1.347v-25.111h-1.347v15.634c0,1.749-0.401,3.298-1.204,4.605c-0.081,0.127-0.162,0.255-0.249,0.386
			c0.056-0.013,0.118-0.02,0.174-0.02h0.249c0.572,0,1.03,0.464,1.03,1.03V502.561z"/>
	</g>
	<g>
		<path d="M148.663,502.386c-1.692-1.163-3.012-2.815-3.954-4.94c-0.94-2.128-1.413-4.58-1.413-7.364s0.473-5.242,1.413-7.374
			c0.942-2.121,2.265-3.768,3.963-4.938c1.705-1.169,3.665-1.748,5.88-1.748c3.839,0,6.589,1.82,8.257,5.451h0.249v-14.113h3.453
			v36.225h-3.354v-4.903h-0.348c-1.702,3.64-4.468,5.454-8.307,5.454C152.303,504.135,150.352,503.556,148.663,502.386z
			 M159.356,499.683c1.235-0.931,2.178-2.237,2.828-3.898c0.65-1.671,0.974-3.584,0.974-5.756c0-2.153-0.317-4.051-0.961-5.693
			c-0.644-1.64-1.581-2.919-2.816-3.84c-1.232-0.917-2.707-1.375-4.427-1.375c-1.733,0-3.22,0.477-4.452,1.422
			c-1.235,0.955-2.168,2.253-2.8,3.893c-0.634,1.643-0.952,3.509-0.952,5.594c0,2.1,0.32,3.985,0.961,5.653
			c0.644,1.667,1.583,2.989,2.815,3.954s2.71,1.45,4.427,1.45C156.655,501.086,158.124,500.619,159.356,499.683z"/>
		<path d="M154.502,505.164c-2.402,0-4.564-0.65-6.425-1.932c-1.842-1.27-3.292-3.077-4.309-5.37c-0.995-2.246-1.5-4.869-1.5-7.781
			c0-2.921,0.504-5.541,1.5-7.787c1.018-2.296,2.471-4.098,4.325-5.373c1.867-1.282,4.045-1.929,6.459-1.929
			c3.136,0,5.641,1.104,7.479,3.291v-10.924c0-0.565,0.46-1.023,1.027-1.023h3.453c0.566,0,1.027,0.458,1.027,1.023v36.225
			c0,0.575-0.46,1.029-1.027,1.029h-3.354c-0.566,0-1.026-0.454-1.026-1.029v-1.86C160.265,504.013,157.707,505.164,154.502,505.164
			z M154.552,477.045c-2.022,0-3.755,0.514-5.295,1.574c-1.537,1.052-2.75,2.567-3.609,4.505c-0.877,1.982-1.322,4.325-1.322,6.957
			c0,2.626,0.445,4.966,1.322,6.944c0.862,1.947,2.072,3.463,3.597,4.512c1.512,1.048,3.279,1.574,5.258,1.574
			c3.118,0,5.389-1.311,6.929-3.998c-0.438,0.522-0.924,0.989-1.453,1.388c-1.412,1.07-3.102,1.614-5.024,1.614
			c-1.944,0-3.649-0.56-5.062-1.674c-1.375-1.076-2.433-2.551-3.142-4.387c-0.682-1.779-1.027-3.809-1.027-6.026
			c0-2.206,0.342-4.206,1.021-5.961c0.697-1.814,1.749-3.273,3.13-4.337c1.413-1.089,3.124-1.64,5.081-1.64
			c1.935,0,3.631,0.535,5.043,1.58c0.516,0.386,0.992,0.831,1.418,1.335C159.907,478.343,157.651,477.045,154.552,477.045z
			 M164.188,502.561h1.298V468.39h-1.4v13.083c0,0.569-0.457,1.023-1.026,1.023h-0.249c-0.137,0-0.274-0.021-0.392-0.075
			c0.277,0.479,0.522,0.996,0.737,1.54c0.685,1.755,1.033,3.796,1.033,6.067c0,2.287-0.352,4.347-1.045,6.126
			c-0.221,0.572-0.476,1.099-0.763,1.596c0.131-0.059,0.277-0.093,0.43-0.093h0.348c0.573,0,1.03,0.457,1.03,1.023V502.561z
			 M154.954,480.144c-1.515,0-2.766,0.398-3.824,1.22c-1.077,0.824-1.91,1.988-2.47,3.444c-0.585,1.515-0.884,3.273-0.884,5.221
			c0,1.966,0.302,3.743,0.896,5.283c0.573,1.486,1.406,2.669,2.489,3.516c1.058,0.827,2.296,1.229,3.792,1.229
			c1.484,0,2.722-0.386,3.78-1.191c1.076-0.815,1.917-1.973,2.492-3.454c0.6-1.543,0.905-3.354,0.905-5.382
			c0-2.013-0.299-3.805-0.893-5.32c-0.566-1.45-1.397-2.592-2.467-3.388C157.707,480.533,156.457,480.144,154.954,480.144z"/>
	</g>
	<g>
		<path d="M174.716,513.695l0.05-3.056l1.652,0.054c0.719,0,1.344-0.088,1.876-0.262c0.535-0.178,1.067-0.569,1.603-1.176
			c0.532-0.61,1.026-1.534,1.475-2.77l0.952-2.65l-10.009-27.416h3.702l7.909,22.765h0.249l7.956-22.765h3.652l-11.458,31.37
			c-0.75,2.02-1.758,3.525-3.027,4.512c-1.266,0.995-2.828,1.493-4.679,1.493C175.951,513.795,175.32,513.761,174.716,513.695z"/>
		<path d="M176.617,514.824c-0.703,0-1.375-0.034-2.013-0.105c-0.526-0.059-0.924-0.51-0.917-1.042l0.049-3.046
			c0.006-0.277,0.122-0.538,0.324-0.734c0.193-0.187,0.411-0.308,0.741-0.28l1.652,0.047c0.569,0,1.092-0.068,1.521-0.208
			c0.348-0.112,0.747-0.417,1.151-0.881c0.448-0.514,0.877-1.332,1.282-2.439l0.824-2.293l-9.881-27.067
			c-0.115-0.314-0.068-0.672,0.122-0.942c0.193-0.274,0.51-0.439,0.843-0.439h3.702c0.438,0,0.831,0.277,0.974,0.691l7.063,20.335
			l7.106-20.342c0.143-0.407,0.535-0.685,0.971-0.685h3.652c0.336,0,0.65,0.165,0.843,0.439c0.19,0.276,0.24,0.628,0.122,0.942
			l-11.456,31.367c-0.821,2.196-1.947,3.867-3.363,4.975C180.481,514.252,178.695,514.824,176.617,514.824z M175.762,512.746
			c0.277,0.013,0.563,0.019,0.855,0.019c1.63,0,2.953-0.417,4.044-1.269c1.111-0.865,2.016-2.237,2.701-4.066l10.951-29.98h-1.456
			l-7.716,22.074c-0.143,0.411-0.529,0.691-0.967,0.691h-0.249c-0.438,0-0.831-0.28-0.974-0.691l-7.666-22.074h-1.5l9.502,26.035
			c0.081,0.23,0.081,0.476,0.003,0.703l-0.949,2.65c-0.498,1.363-1.045,2.374-1.671,3.09c-0.656,0.75-1.35,1.244-2.057,1.48
			c-0.638,0.206-1.375,0.314-2.196,0.314l-0.641-0.021L175.762,512.746z"/>
	</g>
	<g>
		<path d="M224.539,474.329c-1.005-1.291-2.274-2.299-3.802-3.024c-1.521-0.725-3.189-1.089-4.993-1.089
			c-2.297,0-4.381,0.591-6.241,1.773c-1.857,1.188-3.326,2.931-4.399,5.23c-1.076,2.299-1.618,5.056-1.618,8.257
			c0,3.198,0.542,5.948,1.618,8.254c1.073,2.299,2.542,4.045,4.399,5.227c1.86,1.186,3.944,1.777,6.241,1.777
			c1.804,0,3.472-0.361,4.993-1.086c1.527-0.729,2.797-1.733,3.802-3.027c1.015-1.291,1.681-2.754,2.02-4.394h3.6
			c-0.404,2.253-1.26,4.284-2.576,6.08c-1.322,1.801-2.996,3.217-5.031,4.24c-2.034,1.026-4.3,1.54-6.807,1.54
			c-3.05,0-5.769-0.759-8.151-2.287c-2.39-1.527-4.254-3.699-5.595-6.518c-1.344-2.822-2.016-6.092-2.016-9.807
			c0-3.721,0.672-6.988,2.016-9.807c1.341-2.822,3.205-4.99,5.595-6.518c2.383-1.528,5.102-2.29,8.151-2.29
			c2.507,0,4.772,0.51,6.807,1.527c2.035,1.021,3.709,2.424,5.016,4.213c1.31,1.792,2.175,3.833,2.592,6.119h-3.6
			C226.22,477.086,225.554,475.623,224.539,474.329z"/>
		<path d="M215.744,505.117c-3.236,0-6.167-0.824-8.705-2.451c-2.542-1.627-4.549-3.961-5.968-6.944
			c-1.406-2.937-2.115-6.391-2.115-10.245c0-3.858,0.709-7.309,2.115-10.252c1.419-2.977,3.426-5.313,5.968-6.94
			c2.538-1.624,5.469-2.452,8.705-2.452c2.65,0,5.096,0.551,7.268,1.634c2.172,1.089,3.985,2.616,5.386,4.529
			c1.338,1.836,2.255,3.942,2.719,6.261c0.071,0.14,0.112,0.298,0.112,0.466c0,0.569-0.464,1.027-1.03,1.027
			c-0.012,0-0.024,0-0.04,0h-3.6c-0.492,0-0.912-0.34-1.012-0.821c-0.298-1.475-0.914-2.807-1.813-3.967
			c-0.908-1.158-2.065-2.075-3.435-2.732c-1.375-0.649-2.909-0.982-4.555-0.982c-2.091,0-4.008,0.538-5.688,1.608
			c-1.684,1.076-3.037,2.691-4.023,4.797c-1.008,2.153-1.518,4.788-1.518,7.825c0,3.03,0.51,5.662,1.518,7.815
			c0.986,2.112,2.34,3.728,4.023,4.798c1.68,1.073,3.597,1.614,5.688,1.614c1.64,0,3.173-0.327,4.555-0.983
			c1.375-0.653,2.526-1.571,3.435-2.731c0.899-1.157,1.516-2.498,1.813-3.967c0.1-0.479,0.52-0.818,1.012-0.818h3.6
			c0.302,0,0.591,0.134,0.79,0.361c0.193,0.236,0.273,0.544,0.221,0.843c-0.426,2.405-1.356,4.596-2.763,6.509
			c-1.403,1.923-3.223,3.456-5.389,4.552C220.846,504.561,218.4,505.117,215.744,505.117z M215.744,467.892
			c-2.838,0-5.396,0.716-7.598,2.125c-2.216,1.416-3.971,3.463-5.221,6.092c-1.27,2.667-1.914,5.821-1.914,9.368
			c0,3.55,0.645,6.698,1.914,9.361c1.25,2.633,3.005,4.68,5.221,6.095c2.202,1.413,4.76,2.125,7.598,2.125
			c2.33,0,4.468-0.479,6.344-1.428c1.879-0.949,3.447-2.271,4.663-3.927c0.978-1.337,1.692-2.824,2.125-4.445h-1.509
			c-0.41,1.462-1.083,2.803-2.013,3.995c-1.107,1.412-2.511,2.529-4.172,3.325c-1.662,0.79-3.488,1.186-5.438,1.186
			c-2.489,0-4.773-0.653-6.792-1.936c-2.02-1.287-3.628-3.194-4.782-5.665c-1.136-2.427-1.711-5.352-1.711-8.687
			s0.575-6.263,1.711-8.696c1.154-2.47,2.763-4.371,4.782-5.656c2.013-1.288,4.303-1.938,6.792-1.938
			c1.957,0,3.783,0.397,5.438,1.188c1.661,0.79,3.064,1.907,4.172,3.322c0.93,1.195,1.603,2.532,2.013,3.995h1.509
			c-0.444-1.643-1.163-3.146-2.144-4.48c-1.197-1.648-2.76-2.968-4.639-3.901C220.212,468.368,218.074,467.892,215.744,467.892z"/>
	</g>
	<g>
		<path d="M237.675,490.202c1.808-1.27,4.244-2.022,7.293-2.274c1.17-0.084,2.461-0.164,3.889-0.239
			c1.428-0.078,2.632-0.137,3.615-0.189v-2.573c0-1.839-0.572-3.27-1.714-4.306c-1.139-1.03-2.772-1.553-4.892-1.553
			c-1.748,0-3.204,0.376-4.364,1.12c-1.158,0.737-1.907,1.736-2.24,2.99h-3.554c0.19-1.422,0.744-2.67,1.668-3.759
			c0.924-1.083,2.138-1.92,3.641-2.511c1.499-0.594,3.183-0.887,5.049-0.887c1.568,0,3.09,0.268,4.57,0.813
			c1.476,0.538,2.713,1.496,3.728,2.862c1.005,1.368,1.516,3.21,1.516,5.528v18.359h-3.407v-4.2h-0.199
			c-0.632,1.335-1.661,2.47-3.077,3.406c-1.415,0.931-3.176,1.397-5.276,1.397c-1.668,0-3.183-0.327-4.539-0.977
			c-1.366-0.65-2.437-1.594-3.232-2.825c-0.787-1.235-1.186-2.704-1.186-4.402C234.962,493.397,235.867,491.472,237.675,490.202z
			 M240.039,499.81c1.117,0.884,2.573,1.322,4.378,1.322c1.621,0,3.036-0.352,4.253-1.058c1.217-0.716,2.159-1.668,2.815-2.868
			c0.66-1.198,0.986-2.526,0.986-3.977v-2.902l-7.003,0.504c-2.387,0.168-4.166,0.693-5.343,1.603
			c-1.176,0.896-1.761,2.128-1.761,3.695C238.365,497.697,238.923,498.927,240.039,499.81z"/>
		<path d="M243.919,505.217c-1.813,0-3.494-0.363-4.984-1.076c-1.527-0.731-2.756-1.808-3.652-3.201
			c-0.896-1.391-1.351-3.059-1.351-4.956c0-2.931,1.059-5.159,3.152-6.624c1.953-1.363,4.576-2.193,7.8-2.455
			c1.188-0.09,2.485-0.165,3.92-0.242l2.639-0.141v-1.596c0-1.546-0.448-2.703-1.376-3.541c-0.939-0.852-2.352-1.287-4.2-1.287
			c-1.536,0-2.824,0.323-3.808,0.955c-0.949,0.604-1.534,1.381-1.802,2.386c-0.118,0.451-0.528,0.763-0.995,0.763h-3.554
			c-0.292,0-0.572-0.125-0.765-0.346c-0.199-0.224-0.293-0.522-0.252-0.815c0.211-1.608,0.849-3.052,1.9-4.287
			c1.036-1.21,2.399-2.152,4.051-2.803c2.972-1.177,6.892-1.351,10.345-0.081c1.662,0.606,3.071,1.689,4.2,3.217
			c1.143,1.547,1.715,3.609,1.715,6.139v18.359c0,0.575-0.458,1.029-1.023,1.029h-3.407c-0.566,0-1.029-0.454-1.029-1.029v-1.298
			c-0.492,0.492-1.052,0.946-1.678,1.356C248.179,504.691,246.212,505.217,243.919,505.217z M245.866,478.044
			c2.377,0,4.247,0.609,5.582,1.813c1.362,1.235,2.054,2.938,2.054,5.068v2.573c0,0.551-0.433,1.002-0.978,1.026l-3.608,0.193
			c-1.422,0.068-2.717,0.152-3.874,0.233c-2.844,0.233-5.124,0.937-6.776,2.094c-1.533,1.07-2.274,2.685-2.274,4.938
			c0,1.493,0.346,2.787,1.024,3.845c0.696,1.083,1.614,1.883,2.803,2.458c1.217,0.579,2.592,0.871,4.101,0.871
			c1.883,0,3.469-0.41,4.71-1.229c1.03-0.679,1.827-1.475,2.381-2.38c-0.526,0.544-1.136,1.011-1.82,1.409
			c-1.369,0.803-2.978,1.204-4.772,1.204c-2.032,0-3.715-0.52-5.016-1.543c-1.369-1.089-2.065-2.599-2.065-4.49
			c0-1.895,0.725-3.416,2.165-4.514c1.351-1.03,3.276-1.628,5.893-1.814l7.01-0.497c0.273-0.025,0.56,0.08,0.771,0.273
			c0.205,0.192,0.327,0.47,0.327,0.75v2.902c0,1.621-0.38,3.124-1.117,4.474c-0.134,0.24-0.273,0.477-0.433,0.703
			c0.613-0.198,1.55,0.299,1.55,0.978v3.177h1.347v-17.336c0-2.085-0.444-3.733-1.316-4.916c-0.896-1.217-1.96-2.034-3.254-2.511
			c-2.978-1.092-6.365-0.93-8.889,0.065c-1.332,0.525-2.421,1.275-3.235,2.225c-0.532,0.632-0.925,1.31-1.164,2.06h1.534
			c0.473-1.154,1.288-2.1,2.424-2.828C242.271,478.473,243.925,478.044,245.866,478.044z M251.442,491.432l-5.902,0.423
			c-2.172,0.152-3.78,0.619-4.788,1.391c-0.918,0.703-1.363,1.646-1.363,2.884c0,1.248,0.424,2.19,1.288,2.875
			c0.925,0.731,2.182,1.104,3.74,1.104c1.428,0,2.685-0.308,3.733-0.924c1.07-0.619,1.863-1.428,2.433-2.471
			c0.572-1.039,0.859-2.215,0.859-3.484V491.432z"/>
	</g>
	<g>
		<path d="M274.636,479.319h-6.001v24.265h-3.4v-24.265h-4.207v-2.899h4.207v-3.904c0-2.135,0.625-3.809,1.888-5.025
			c1.261-1.216,2.996-1.826,5.215-1.826c0.865,0,1.802,0.1,2.803,0.299v3.049c-0.531-0.093-1.234-0.146-2.1-0.146
			c-1.506,0-2.616,0.349-3.329,1.059c-0.722,0.712-1.076,1.808-1.076,3.295v3.201h6.001V479.319z"/>
		<path d="M268.635,504.613h-3.4c-0.566,0-1.03-0.454-1.03-1.029V480.35h-3.177c-0.569,0-1.023-0.461-1.023-1.03v-2.899
			c0-0.569,0.454-1.027,1.023-1.027h3.177v-2.877c0-2.418,0.743-4.354,2.2-5.769c1.994-1.926,5.021-2.576,8.935-1.792
			c0.479,0.093,0.825,0.517,0.825,1.008v3.049c0,0.309-0.134,0.595-0.367,0.79c-0.236,0.196-0.538,0.274-0.844,0.222
			c-0.476-0.088-1.116-0.128-1.913-0.128c-1.217,0-2.097,0.255-2.61,0.759c-0.51,0.511-0.766,1.369-0.766,2.564v2.174h4.972
			c0.569,0,1.03,0.458,1.03,1.027v2.899c0,0.569-0.461,1.03-1.03,1.03h-4.972v23.234
			C269.664,504.159,269.201,504.613,268.635,504.613z M266.258,502.561h1.347v-23.241c0-0.566,0.461-1.029,1.03-1.029h4.978v-0.841
			h-4.978c-0.569,0-1.03-0.463-1.03-1.029v-3.201c0-1.762,0.467-3.121,1.379-4.021c0.914-0.902,2.277-1.362,4.057-1.362
			c0.386,0,0.743,0.01,1.07,0.028v-1.036c-2.838-0.408-4.903,0.071-6.272,1.399c-1.058,1.024-1.58,2.427-1.58,4.288v3.904
			c0,0.566-0.458,1.029-1.023,1.029h-3.177v0.841h3.177c0.565,0,1.023,0.463,1.023,1.029V502.561z"/>
	</g>
	<g>
		<path d="M283.332,502.373c-1.879-1.176-3.323-2.818-4.344-4.928c-1.017-2.109-1.524-4.533-1.524-7.265
			c0-2.723,0.501-5.155,1.516-7.309c1.011-2.146,2.42-3.833,4.24-5.037c1.814-1.213,3.886-1.813,6.204-1.813
			c2.054,0,3.961,0.491,5.728,1.475c1.768,0.983,3.189,2.486,4.266,4.505c1.076,2.014,1.614,4.493,1.614,7.43v1.597h-20.163
			c0.046,2.037,0.451,3.811,1.2,5.319c0.747,1.51,1.802,2.673,3.152,3.501c1.354,0.824,2.915,1.238,4.697,1.238
			c1.721,0,3.161-0.361,4.318-1.077c1.161-0.719,2.025-1.574,2.592-2.573h3.653c-0.405,1.264-1.089,2.405-2.066,3.423
			c-0.971,1.018-2.188,1.82-3.64,2.405c-1.45,0.585-3.071,0.871-4.857,0.871C287.404,504.135,285.208,503.55,283.332,502.373z
			 M297.525,488.081c0-1.687-0.339-3.214-1.023-4.583c-0.685-1.363-1.637-2.439-2.862-3.211c-1.226-0.781-2.613-1.167-4.166-1.167
			c-1.603,0-3.037,0.398-4.306,1.201c-1.264,0.803-2.269,1.882-3.012,3.254c-0.744,1.369-1.164,2.866-1.264,4.506H297.525z"/>
		<path d="M289.918,505.164c-2.697,0-5.102-0.644-7.131-1.919c-2.037-1.276-3.627-3.077-4.723-5.354
			c-1.082-2.24-1.63-4.838-1.63-7.71c0-2.862,0.541-5.467,1.614-7.741c1.086-2.317,2.633-4.156,4.599-5.46
			c1.981-1.322,4.259-1.987,6.776-1.987c2.215,0,4.313,0.538,6.226,1.602c1.935,1.083,3.51,2.731,4.673,4.922
			c1.154,2.159,1.739,4.819,1.739,7.915v1.597c0,0.569-0.464,1.029-1.03,1.029h-19.074c0.134,1.44,0.485,2.729,1.029,3.827
			c0.672,1.347,1.581,2.358,2.767,3.083c1.188,0.728,2.588,1.089,4.165,1.089c1.516,0,2.788-0.308,3.78-0.924
			c1.002-0.619,1.755-1.363,2.231-2.206c0.187-0.32,0.525-0.52,0.898-0.52h3.653c0.326,0,0.631,0.158,0.824,0.42
			c0.192,0.265,0.252,0.604,0.152,0.918c-0.445,1.412-1.217,2.697-2.299,3.827c-1.07,1.119-2.412,2.006-3.998,2.645
			C293.593,504.85,291.832,505.164,289.918,505.164z M289.424,477.045c-2.104,0-3.998,0.554-5.638,1.643
			c-1.648,1.102-2.952,2.651-3.877,4.624c-0.942,2-1.415,4.312-1.415,6.869c0,2.561,0.479,4.856,1.422,6.823
			c0.93,1.916,2.262,3.435,3.96,4.498c1.702,1.064,3.737,1.609,6.042,1.609c1.652,0,3.155-0.271,4.478-0.803
			c1.31-0.526,2.411-1.258,3.276-2.159c0.504-0.526,0.924-1.086,1.254-1.689h-1.528c-0.638,0.93-1.515,1.742-2.616,2.42
			c-1.322,0.821-2.959,1.235-4.863,1.235c-1.966,0-3.727-0.467-5.235-1.391c-1.51-0.924-2.704-2.243-3.535-3.92
			c-0.812-1.64-1.257-3.575-1.31-5.753c-0.006-0.273,0.1-0.544,0.293-0.743c0.192-0.193,0.457-0.312,0.737-0.312h19.134v-0.566
			c0-2.757-0.498-5.09-1.493-6.95c-0.978-1.826-2.274-3.208-3.855-4.092C293.045,477.499,291.287,477.045,289.424,477.045z
			 M297.525,489.104h-16.633c-0.283,0-0.557-0.118-0.75-0.324c-0.192-0.205-0.298-0.485-0.276-0.765
			c0.105-1.78,0.575-3.441,1.388-4.932c0.818-1.519,1.953-2.741,3.366-3.634c2.825-1.779,6.758-1.813,9.57-0.037
			c1.381,0.877,2.464,2.097,3.229,3.627c0.756,1.506,1.135,3.195,1.135,5.041C298.555,488.646,298.095,489.104,297.525,489.104z
			 M282.044,487.051h14.405c-0.112-1.12-0.398-2.153-0.865-3.09c-0.598-1.194-1.435-2.137-2.492-2.809
			c-2.165-1.363-5.202-1.329-7.373,0.04c-1.111,0.703-2.007,1.668-2.657,2.875C282.561,484.985,282.218,485.983,282.044,487.051z"/>
	</g>
</g>
</svg>
