<?xml version="1.0" encoding="utf-8"?>
<!-- Generator: Adobe Illustrator 15.0.0, SVG Export Plug-In . SVG Version: 6.00 Build 0)  -->
<!DOCTYPE svg PUBLIC "-//W3C//DTD SVG 1.1//EN" "http://www.w3.org/Graphics/SVG/1.1/DTD/svg11.dtd">
<svg version="1.1" id="레이어_1" xmlns="http://www.w3.org/2000/svg" xmlns:xlink="http://www.w3.org/1999/xlink" x="0px"
	 y="0px" width="538.58px" height="198.43px" viewBox="0 0 538.58 198.43" enable-background="new 0 0 538.58 198.43"
	 xml:space="preserve">
<g>
	<g>
		<path d="M322.742,103.291c0,3.713-3.193,6.719-7.132,6.719c-3.94,0-7.138-3.006-7.138-6.719c0-3.712,3.197-6.723,7.138-6.723
			C319.549,96.568,322.742,99.579,322.742,103.291z"/>
		<path d="M315.61,111.393c-4.696,0-8.518-3.635-8.518-8.102c0-4.467,3.821-8.102,8.518-8.102c4.692,0,8.512,3.635,8.512,8.102
			C324.122,107.758,320.303,111.393,315.61,111.393z M315.61,97.948c-3.175,0-5.759,2.396-5.759,5.343
			c0,2.943,2.584,5.34,5.759,5.34c3.174,0,5.753-2.396,5.753-5.34C321.363,100.344,318.784,97.948,315.61,97.948z"/>
	</g>
	<g>
		<path d="M467.181,51.674c5.402,1.514,9.542,3.732,12.409,6.659c2.874,2.925,4.31,6.453,4.31,10.584
			c0,3.93-1.353,7.316-4.065,10.158c-2.712,2.844-6.626,5.042-11.748,6.597c-5.123,1.555-11.219,2.393-18.287,2.517v13.252h51.433
			v3.563H394.757v-3.563h51.428V88.189c-7.067-0.125-13.175-0.953-18.315-2.487c-5.143-1.533-9.078-3.721-11.809-6.565
			c-2.729-2.844-4.098-6.248-4.098-10.22c0-4.131,1.437-7.66,4.309-10.584c2.869-2.926,7.001-5.145,12.381-6.659
			c5.382-1.515,11.786-2.271,19.22-2.271C455.341,49.404,461.776,50.16,467.181,51.674z M483.779,148.33h-71.213v-30.314h71.213
			V148.33z M431.096,54.802c-4.843,1.311-8.6,3.183-11.268,5.617c-2.676,2.434-4.009,5.268-4.009,8.498
			c0,3.152,1.333,5.913,4.009,8.285c2.668,2.374,6.425,4.207,11.268,5.494c4.835,1.288,10.432,1.933,16.776,1.933
			c6.347,0,11.948-0.645,16.812-1.933c4.856-1.287,8.631-3.12,11.321-5.494c2.689-2.372,4.038-5.132,4.038-8.285
			c0-3.23-1.349-6.064-4.038-8.498c-2.69-2.435-6.465-4.307-11.321-5.617c-4.863-1.307-10.465-1.963-16.812-1.963
			C441.527,52.839,435.931,53.495,431.096,54.802z M416.422,145.145h63.621v-23.943h-63.621V145.145z"/>
		<path d="M483.779,151.092h-71.213c-1.528,0-2.764-1.236-2.764-2.762v-30.314c0-1.527,1.235-2.764,2.764-2.764h71.213
			c1.525,0,2.761,1.236,2.761,2.764v30.314C486.54,149.855,485.305,151.092,483.779,151.092z M419.181,142.383h58.104v-18.422
			h-58.104V142.383z M501.231,107.764H394.757c-1.526,0-2.762-1.234-2.762-2.76v-3.563c0-1.525,1.235-2.761,2.762-2.761h48.669
			v-7.816c-6.178-0.275-11.664-1.12-16.346-2.518c-5.579-1.666-9.959-4.118-13.011-7.299c-3.23-3.362-4.865-7.443-4.865-12.13
			c0-4.86,1.712-9.072,5.096-12.519c3.198-3.259,7.775-5.742,13.605-7.381c5.595-1.576,12.314-2.375,19.967-2.375
			c7.688,0,14.437,0.797,20.054,2.374c5.853,1.64,10.44,4.124,13.636,7.384c3.384,3.442,5.097,7.654,5.097,12.517
			c0,4.647-1.624,8.705-4.828,12.063c-3.029,3.178-7.385,5.645-12.941,7.333c-4.668,1.417-10.152,2.273-16.331,2.55v7.816h48.674
			c1.526,0,2.761,1.235,2.761,2.761v3.563C503.992,106.529,502.758,107.764,501.231,107.764z M447.872,55.6
			c-6.069,0-11.472,0.627-16.058,1.867c-4.391,1.19-7.799,2.869-10.128,4.992c-2.089,1.903-3.104,4.015-3.104,6.459
			c0,2.35,1.005,4.383,3.078,6.22c2.331,2.076,5.744,3.721,10.144,4.892c4.586,1.22,9.99,1.838,16.068,1.838
			c6.074,0,11.491-0.619,16.104-1.841c4.417-1.171,7.848-2.817,10.203-4.895c2.087-1.841,3.104-3.875,3.104-6.215
			c0-2.435-1.024-4.546-3.132-6.451c-2.351-2.128-5.778-3.809-10.188-5C459.353,56.229,453.938,55.6,447.872,55.6z"/>
	</g>
	<g>
		<g>
			<path d="M353.964,58.619h-76.32v27.884h77.817v2.27h-79.705V56.348h78.208V58.619z"/>
			<path d="M355.461,91.947h-79.705c-1.752,0-3.175-1.42-3.175-3.174V56.348c0-1.753,1.423-3.173,3.175-3.173h78.208
				c1.75,0,3.176,1.42,3.176,3.173v2.271c0,1.754-1.426,3.175-3.176,3.175h-73.143v21.535h74.64c1.754,0,3.176,1.42,3.176,3.175
				v2.27C358.637,90.527,357.215,91.947,355.461,91.947z"/>
		</g>
	</g>
	<g>
		<path d="M359.794,148.367c-0.759,0-1.53-0.176-2.249-0.559l-42.118-22.205l-41.737,22.199c-2.361,1.258-5.285,0.359-6.532-1.998
			c-1.253-2.354-0.358-5.277,1.998-6.533l43.994-23.398c1.412-0.752,3.103-0.754,4.521-0.006l44.381,23.398
			c2.359,1.24,3.267,4.164,2.02,6.525C363.205,147.432,361.528,148.367,359.794,148.367z"/>
	</g>
</g>
<g>
	<g opacity="0.7">
		<polygon points="163.634,447.604 69.403,447.225 69.415,444.228 160.642,444.595 160.884,259.585 -24.254,259.585 
			-24.254,351.537 -27.252,351.537 -27.252,256.586 163.888,256.586 		"/>
	</g>
	<polygon fill="#00AF50" points="120.66,382.449 120.66,395.004 15.909,395.004 15.909,309.179 120.66,309.179 120.66,320.61 
		28.276,320.798 28.463,382.825 	"/>
</g>
<g>
	<g>
		<polygon points="184.284,184.009 100.966,183.674 100.977,181.022 181.637,181.348 181.853,17.768 18.159,17.768 18.159,99.07 
			15.508,99.07 15.508,15.118 184.508,15.118 		"/>
		<polygon points="186.931,186.671 98.305,186.314 98.336,178.361 178.988,178.687 179.198,20.419 20.81,20.419 20.81,101.722 
			12.857,101.722 12.857,12.467 187.161,12.467 		"/>
	</g>
	<polygon fill="#00AF50" points="142,123.917 142,133.99 57.955,133.99 57.955,65.131 142,65.131 142,74.302 67.878,74.453 
		68.029,124.219 	"/>
</g>
</svg>
