<?xml version="1.0" encoding="utf-8"?>
<!-- Generator: Adobe Illustrator 15.0.0, SVG Export Plug-In . SVG Version: 6.00 Build 0)  -->
<!DOCTYPE svg PUBLIC "-//W3C//DTD SVG 1.1//EN" "http://www.w3.org/Graphics/SVG/1.1/DTD/svg11.dtd">
<svg version="1.1" id="레이어_1" xmlns="http://www.w3.org/2000/svg" xmlns:xlink="http://www.w3.org/1999/xlink" x="0px"
	 y="0px" width="538.58px" height="198.43px" viewBox="0 0 538.58 198.43" enable-background="new 0 0 538.58 198.43"
	 xml:space="preserve">
<g>
	<g opacity="0.7">
		<polygon points="163.634,447.604 69.403,447.225 69.415,444.228 160.642,444.595 160.884,259.585 -24.254,259.585 
			-24.254,351.537 -27.252,351.537 -27.252,256.586 163.888,256.586 		"/>
	</g>
	<polygon fill="#00AF50" points="120.66,382.449 120.66,395.004 15.909,395.004 15.909,309.179 120.66,309.179 120.66,320.61 
		28.276,320.798 28.463,382.825 	"/>
</g>
<g>
	<g>
		<polygon points="184.284,184.009 100.966,183.674 100.977,181.022 181.637,181.348 181.853,17.768 18.159,17.768 18.159,99.07 
			15.508,99.07 15.508,15.118 184.508,15.118 		"/>
		<polygon points="186.931,186.671 98.305,186.314 98.336,178.361 178.988,178.687 179.198,20.419 20.81,20.419 20.81,101.722 
			12.857,101.722 12.857,12.467 187.161,12.467 		"/>
	</g>
	<polygon fill="#00AF50" points="142,123.917 142,133.99 57.955,133.99 57.955,65.131 142,65.131 142,74.302 67.878,74.453 
		68.029,124.219 	"/>
</g>
<path d="M272.656,97.097V41.896h17.309c5.263,0,9.778,1.095,13.554,3.28c3.772,2.185,6.664,5.336,8.671,9.454
	s3.011,9.026,3.011,14.717c0,5.771-1.021,10.739-3.065,14.906c-2.05,4.167-5.036,7.349-8.962,9.546
	c-3.926,2.203-8.634,3.298-14.123,3.298H272.656z M288.744,92.22c4.626,0,8.515-0.912,11.666-2.729s5.52-4.43,7.11-7.851
	c1.585-3.42,2.368-7.514,2.344-12.293c0-4.73-0.771-8.775-2.307-12.141c-1.536-3.372-3.813-5.948-6.823-7.741
	s-6.703-2.687-11.076-2.687h-11.59V92.22H288.744z"/>
<path d="M289.05,98.664h-16.394c-0.866,0-1.566-0.698-1.566-1.567V41.896c0-0.863,0.7-1.567,1.566-1.567h17.309
	c5.52,0,10.341,1.175,14.337,3.494c4.029,2.332,7.156,5.734,9.295,10.121c2.105,4.314,3.17,9.497,3.17,15.402
	c0,5.984-1.083,11.229-3.228,15.598c-2.182,4.437-5.413,7.882-9.602,10.226C299.798,97.489,294.786,98.664,289.05,98.664z
	 M274.223,95.531h14.827c5.195,0,9.689-1.04,13.355-3.096c3.628-2.025,6.425-5.012,8.321-8.873
	c1.928-3.935,2.907-8.714,2.907-14.215c0-5.428-0.961-10.146-2.852-14.031c-1.86-3.813-4.571-6.768-8.05-8.781
	c-3.516-2.038-7.812-3.072-12.768-3.072h-15.742V95.531z M288.744,93.787h-10.676c-0.862,0-1.566-0.704-1.566-1.566V46.779
	c0-0.869,0.704-1.566,1.566-1.566h11.59c4.636,0,8.632,0.979,11.878,2.907c3.276,1.952,5.782,4.792,7.447,8.432
	c1.621,3.562,2.447,7.863,2.447,12.795c0.024,4.975-0.813,9.338-2.49,12.955c-1.72,3.702-4.326,6.572-7.747,8.548
	C297.815,92.795,293.627,93.787,288.744,93.787z M279.636,90.654h9.108c4.326,0,7.988-0.851,10.883-2.521
	c2.895-1.665,5.012-4.008,6.471-7.153c1.484-3.188,2.225-7.104,2.2-11.627c0-4.485-0.729-8.353-2.166-11.498
	c-1.396-3.054-3.482-5.428-6.199-7.043c-2.754-1.64-6.211-2.466-10.274-2.466h-10.022V90.654z"/>
<path d="M327.038,76.702c2.757-1.928,6.462-3.084,11.112-3.47c1.777-0.123,3.754-0.245,5.927-0.361
	c2.175-0.116,4.011-0.208,5.51-0.288v-3.922c0-2.796-0.872-4.981-2.609-6.56c-1.744-1.573-4.229-2.362-7.453-2.362
	c-2.668,0-4.89,0.563-6.652,1.695c-1.768,1.132-2.906,2.649-3.414,4.559h-5.412c0.278-2.16,1.122-4.069,2.536-5.721
	c1.407-1.652,3.259-2.931,5.544-3.831c2.289-0.9,4.855-1.353,7.704-1.353c2.387,0,4.706,0.41,6.958,1.236
	c2.245,0.826,4.14,2.283,5.679,4.369c1.535,2.081,2.307,4.89,2.307,8.42v27.983h-5.187v-6.4h-0.303
	c-0.967,2.031-2.53,3.757-4.69,5.183c-2.16,1.42-4.843,2.136-8.044,2.136c-2.542,0-4.846-0.496-6.921-1.487
	c-2.067-0.991-3.708-2.429-4.916-4.308c-1.209-1.878-1.812-4.118-1.812-6.713C322.901,81.573,324.281,78.636,327.038,76.702z
	 M330.639,91.345c1.704,1.346,3.929,2.02,6.674,2.02c2.463,0,4.626-0.539,6.479-1.622c1.857-1.083,3.283-2.534,4.29-4.363
	c1.003-1.83,1.505-3.855,1.505-6.064v-4.424l-10.675,0.765c-3.635,0.257-6.346,1.064-8.139,2.441
	c-1.793,1.371-2.687,3.25-2.687,5.642C328.087,88.126,328.938,89.993,330.639,91.345z"/>
<path d="M336.55,99.582c-2.766,0-5.32-0.55-7.594-1.64c-2.331-1.12-4.204-2.76-5.563-4.877c-1.364-2.13-2.059-4.669-2.059-7.558
	c0-4.461,1.618-7.857,4.807-10.084c2.974-2.086,6.97-3.347,11.88-3.751c1.809-0.128,3.791-0.251,5.976-0.361l4.023-0.214v-2.436
	c0-2.356-0.686-4.118-2.096-5.397c-1.438-1.297-3.592-1.958-6.4-1.958c-2.354,0-4.309,0.483-5.808,1.45
	c-1.438,0.918-2.337,2.111-2.744,3.641c-0.181,0.686-0.805,1.163-1.515,1.163h-5.412c-0.45,0-0.879-0.196-1.179-0.533
	c-0.296-0.343-0.434-0.789-0.373-1.236c0.318-2.46,1.291-4.657,2.895-6.536c1.576-1.842,3.647-3.28,6.165-4.271
	c4.544-1.793,10.504-2.056,15.772-0.128c2.527,0.93,4.682,2.576,6.4,4.908c1.732,2.35,2.613,5.495,2.613,9.35v27.983
	c0,0.869-0.704,1.567-1.566,1.567h-5.187c-0.865,0-1.566-0.698-1.566-1.567v-1.982c-0.753,0.752-1.609,1.444-2.566,2.074
	C343.043,98.774,340.047,99.582,336.55,99.582z M339.524,58.173c3.61,0,6.474,0.93,8.502,2.766c2.075,1.878,3.127,4.479,3.127,7.722
	v3.922c0,0.838-0.651,1.524-1.486,1.567l-5.505,0.288c-2.166,0.11-4.13,0.232-5.901,0.361c-4.329,0.355-7.812,1.426-10.326,3.188
	c-2.332,1.634-3.467,4.094-3.467,7.521c0,2.276,0.526,4.253,1.563,5.862c1.056,1.646,2.454,2.87,4.277,3.745
	c1.848,0.881,3.947,1.334,6.241,1.334c2.876,0,5.29-0.63,7.185-1.878c1.561-1.028,2.781-2.246,3.629-3.623
	c-0.809,0.82-1.738,1.542-2.785,2.147c-2.08,1.218-4.527,1.836-7.266,1.836c-3.094,0-5.664-0.795-7.644-2.356
	c-2.09-1.658-3.148-3.959-3.148-6.835c0-2.895,1.111-5.214,3.302-6.891c2.053-1.572,4.993-2.478,8.979-2.76l10.672-0.759
	c0.429-0.03,0.863,0.123,1.182,0.417c0.318,0.293,0.498,0.709,0.498,1.144v4.424c0,2.466-0.571,4.761-1.697,6.817
	c-0.202,0.373-0.423,0.728-0.661,1.071c0.948-0.3,2.358,0.459,2.358,1.493v4.834h2.054V69.114c0-3.17-0.674-5.691-2.001-7.49
	c-1.365-1.854-2.989-3.102-4.96-3.824c-4.55-1.671-9.708-1.414-13.545,0.098c-2.031,0.802-3.689,1.946-4.929,3.39
	c-0.817,0.961-1.404,1.995-1.778,3.139h2.344c0.723-1.756,1.958-3.207,3.69-4.308C334.038,58.828,336.563,58.173,339.524,58.173z
	 M348.021,78.574l-8.995,0.643c-3.311,0.233-5.768,0.949-7.297,2.124c-1.396,1.065-2.074,2.503-2.074,4.4s0.642,3.329,1.958,4.375
	c1.413,1.114,3.328,1.683,5.7,1.683c2.175,0,4.09-0.477,5.688-1.407c1.625-0.948,2.836-2.178,3.708-3.77
	c0.869-1.585,1.313-3.372,1.313-5.305V78.574z"/>
<path d="M385.957,61.318c-1.576-1.102-3.659-1.658-6.254-1.658c-1.777,0-3.359,0.306-4.742,0.917
	c-1.39,0.612-2.467,1.45-3.243,2.515c-0.774,1.071-1.163,2.264-1.163,3.586c0,3.225,2.466,5.44,7.398,6.633l6.327,1.523
	c6.964,1.726,10.445,5.391,10.445,10.978c0,2.362-0.618,4.461-1.848,6.291c-1.236,1.83-3.011,3.262-5.339,4.29
	c-2.326,1.028-5.089,1.542-8.292,1.542c-4.421,0-7.946-0.979-10.577-2.931c-2.631-1.958-4.216-4.767-4.748-8.426h5.415
	c0.404,2.233,1.441,3.922,3.105,5.066c1.665,1.145,3.907,1.72,6.729,1.72c2.059,0,3.864-0.3,5.415-0.9
	c1.549-0.593,2.748-1.438,3.602-2.533c0.851-1.095,1.275-2.362,1.275-3.812c0-3.354-2.387-5.593-7.165-6.707l-6.327-1.53
	c-3.458-0.783-6.102-2.123-7.931-4.02c-1.83-1.891-2.745-4.21-2.745-6.958c0-2.258,0.615-4.29,1.849-6.083
	c1.232-1.787,2.961-3.194,5.186-4.21c2.222-1.016,4.758-1.524,7.606-1.524c2.668,0.024,5.023,0.49,7.07,1.389
	c2.047,0.906,3.678,2.172,4.898,3.812c1.218,1.64,1.983,3.543,2.289,5.703h-5.187C388.552,63.986,387.532,62.426,385.957,61.318z"/>
<path d="M379.247,99.502c-4.742,0-8.616-1.089-11.514-3.243c-2.968-2.209-4.77-5.391-5.36-9.454
	c-0.067-0.453,0.067-0.912,0.367-1.254c0.294-0.343,0.729-0.539,1.182-0.539h5.415c0.756,0,1.404,0.539,1.539,1.285
	c0.333,1.824,1.135,3.151,2.454,4.057c1.392,0.96,3.356,1.444,5.841,1.444c1.854,0,3.487-0.269,4.853-0.795
	c1.272-0.489,2.258-1.175,2.931-2.031c0.634-0.82,0.942-1.75,0.942-2.852c0-1.628-0.618-3.935-5.954-5.183l-6.339-1.53
	c-3.724-0.845-6.655-2.344-8.689-4.455c-2.114-2.185-3.186-4.895-3.186-8.046c0-2.576,0.713-4.92,2.124-6.97
	c1.392-2.019,3.35-3.616,5.822-4.748c2.417-1.102,5.195-1.665,8.261-1.665c2.889,0.03,5.477,0.539,7.704,1.523
	c2.285,1.01,4.143,2.46,5.52,4.308c1.291,1.738,2.136,3.745,2.515,5.972c0.092,0.202,0.147,0.429,0.147,0.667
	c0,0.875-0.771,1.512-1.598,1.567c-0.012,0-0.021,0-0.03,0h-5.187c-0.73,0-1.364-0.508-1.526-1.218
	c-0.373-1.634-1.166-2.858-2.423-3.739c-1.301-0.912-3.103-1.377-5.354-1.377c-1.548,0-2.932,0.263-4.112,0.783
	c-1.138,0.502-1.988,1.156-2.604,2.007c-0.581,0.796-0.866,1.671-0.866,2.662c0,0.894,0,3.61,6.199,5.109l6.327,1.524
	c9.625,2.386,11.645,8.12,11.645,12.501c0,2.674-0.713,5.085-2.117,7.166c-1.396,2.075-3.414,3.702-6.003,4.847
	C385.66,98.939,382.658,99.502,379.247,99.502z M365.846,88.145c0.658,2.374,1.897,4.216,3.761,5.599
	c2.341,1.744,5.587,2.625,9.641,2.625c2.971,0,5.547-0.471,7.658-1.407c2.038-0.906,3.61-2.16,4.672-3.733
	c1.064-1.579,1.582-3.347,1.582-5.416c0-4.816-3.029-7.912-9.259-9.46l-6.314-1.518c-7.104-1.719-8.598-5.385-8.598-8.157
	c0-1.652,0.492-3.17,1.463-4.504c0.936-1.291,2.239-2.307,3.873-3.029c1.585-0.698,3.393-1.053,5.379-1.053
	c2.906,0,5.314,0.655,7.153,1.946c1.561,1.095,2.674,2.57,3.322,4.387h2.068c-0.354-1.175-0.887-2.246-1.6-3.2
	c-1.065-1.432-2.463-2.515-4.274-3.317c-1.836-0.808-4.008-1.23-6.456-1.254c-2.592,0-4.932,0.465-6.939,1.383
	c-1.951,0.894-3.479,2.13-4.546,3.672c-1.056,1.542-1.57,3.237-1.57,5.195c0,2.343,0.756,4.265,2.305,5.868
	c1.605,1.665,4.014,2.87,7.15,3.586l6.349,1.53c6.914,1.615,8.364,5.367,8.364,8.23c0,1.793-0.538,3.402-1.603,4.773
	c-1.028,1.322-2.467,2.337-4.277,3.035c-1.726,0.667-3.739,1.003-5.979,1.003c-3.13,0-5.691-0.673-7.615-1.995
	c-1.674-1.15-2.831-2.76-3.452-4.791H365.846z"/>
<path d="M410.642,95.25c-2.784-1.793-4.95-4.308-6.498-7.545c-1.555-3.243-2.326-6.945-2.326-11.112
	c0-4.198,0.771-7.918,2.326-11.174c1.548-3.249,3.72-5.789,6.517-7.606s5.973-2.723,9.53-2.723c3.559,0,6.729,0.906,9.513,2.723
	s4.944,4.357,6.48,7.606c1.536,3.255,2.307,6.976,2.307,11.174c0,4.167-0.771,7.869-2.307,11.112
	c-1.536,3.237-3.696,5.752-6.48,7.545s-5.954,2.686-9.513,2.686C416.608,97.936,413.426,97.042,410.642,95.25z M427.243,91.058
	c1.982-1.487,3.488-3.5,4.516-6.046c1.034-2.54,1.549-5.348,1.549-8.42c0-3.078-0.515-5.893-1.549-8.444
	c-1.027-2.558-2.533-4.583-4.516-6.083c-1.982-1.5-4.332-2.252-7.053-2.252c-2.744,0-5.115,0.752-7.11,2.252
	c-1.995,1.499-3.506,3.524-4.537,6.083c-1.028,2.552-1.542,5.366-1.542,8.444c0,3.072,0.514,5.88,1.542,8.42
	c1.031,2.546,2.542,4.559,4.537,6.046s4.366,2.228,7.11,2.228C422.911,93.285,425.261,92.544,427.243,91.058z"/>
<path d="M420.19,99.502c-3.87,0-7.367-0.985-10.396-2.931c-3.02-1.946-5.396-4.7-7.064-8.194c-1.646-3.433-2.479-7.398-2.479-11.786
	c0-4.412,0.833-8.402,2.479-11.847c1.668-3.5,4.051-6.278,7.077-8.243c3.038-1.977,6.532-2.98,10.384-2.98
	c3.853,0,7.341,1.003,10.369,2.98c3.011,1.964,5.385,4.742,7.044,8.249c1.627,3.445,2.453,7.429,2.453,11.841
	c0,4.381-0.826,8.347-2.453,11.779c-1.665,3.494-4.033,6.254-7.056,8.194C427.524,98.517,424.037,99.502,420.19,99.502z
	 M420.19,56.655c-3.233,0-6.152,0.833-8.677,2.472c-2.536,1.646-4.54,3.99-5.957,6.964c-1.444,3.023-2.172,6.56-2.172,10.5
	c0,3.917,0.728,7.423,2.172,10.433c1.414,2.962,3.408,5.281,5.933,6.909c2.515,1.616,5.443,2.436,8.701,2.436
	c3.234,0,6.153-0.82,8.662-2.436c2.521-1.622,4.51-3.947,5.917-6.902c1.426-3.011,2.154-6.523,2.154-10.439
	c0-3.941-0.729-7.478-2.154-10.5c-1.407-2.974-3.402-5.318-5.923-6.964C426.338,57.488,423.425,56.655,420.19,56.655z
	 M420.19,94.852c-3.077,0-5.785-0.851-8.046-2.54c-2.219-1.652-3.92-3.91-5.052-6.713c-1.102-2.71-1.658-5.746-1.658-9.007
	c0-3.268,0.557-6.303,1.658-9.032c1.132-2.809,2.827-5.079,5.045-6.75c2.265-1.701,4.972-2.564,8.053-2.564
	c3.057,0,5.749,0.863,8.001,2.57c2.203,1.67,3.893,3.941,5.024,6.744c1.102,2.729,1.658,5.764,1.658,9.032s-0.563,6.297-1.665,9.014
	c-1.125,2.791-2.82,5.048-5.023,6.707C425.934,93.995,423.247,94.852,420.19,94.852z M420.19,61.379
	c-2.42,0-4.439,0.636-6.171,1.934c-1.777,1.34-3.093,3.115-4.021,5.416c-0.948,2.356-1.432,5-1.432,7.863
	c0,2.858,0.48,5.495,1.429,7.833c0.915,2.264,2.268,4.069,4.021,5.373c1.734,1.297,3.754,1.922,6.174,1.922
	c2.393,0,4.397-0.625,6.116-1.916c1.738-1.31,3.091-3.115,4.002-5.379c0.949-2.337,1.433-4.975,1.433-7.833
	c0-2.864-0.483-5.507-1.433-7.857c-0.918-2.276-2.264-4.1-4.008-5.422C424.581,62.016,422.58,61.379,420.19,61.379z"/>
<path d="M447.565,55.701h5.029v6.401h0.459c0.839-2.185,2.228-3.886,4.174-5.109c1.946-1.218,4.265-1.83,6.957-1.83
	c2.772,0,5.098,0.649,6.977,1.946c1.878,1.297,3.292,3.139,4.234,5.525h0.3c0.967-2.337,2.515-4.167,4.632-5.489
	c2.124-1.322,4.676-1.983,7.649-1.983c3.91,0,6.988,1.224,9.222,3.66c2.239,2.441,3.354,5.948,3.354,10.525v27.75h-5.257V69.42
	c0-3.127-0.802-5.495-2.404-7.11c-1.598-1.609-3.776-2.417-6.518-2.417c-2.007,0-3.745,0.422-5.207,1.279
	c-1.457,0.851-2.57,2.038-3.335,3.562c-0.759,1.523-1.145,3.268-1.145,5.226v27.139h-5.257v-28.13c0-1.805-0.349-3.396-1.052-4.767
	c-0.698-1.371-1.708-2.435-3.029-3.182c-1.321-0.753-2.882-1.126-4.688-1.126c-1.854,0-3.537,0.459-5.036,1.371
	c-1.499,0.918-2.674,2.19-3.524,3.831s-1.279,3.513-1.279,5.624v26.38h-5.256V55.701z"/>
<path d="M500.552,98.664h-5.257c-0.869,0-1.566-0.698-1.566-1.567V69.42c0-2.68-0.654-4.699-1.952-6.009
	c-1.303-1.316-3.071-1.952-5.403-1.952c-1.72,0-3.206,0.355-4.418,1.065c-1.205,0.704-2.093,1.652-2.723,2.913
	c-0.648,1.297-0.979,2.821-0.979,4.522v27.139c0,0.869-0.697,1.567-1.566,1.567h-5.257c-0.868,0-1.566-0.698-1.566-1.567v-28.13
	c0-1.548-0.3-2.913-0.881-4.057c-0.557-1.102-1.346-1.928-2.405-2.533c-2.19-1.242-5.653-1.291-8.132,0.227
	c-1.267,0.771-2.228,1.823-2.949,3.212c-0.734,1.407-1.108,3.053-1.108,4.901v26.38c0,0.869-0.697,1.567-1.566,1.567h-5.256
	c-0.869,0-1.566-0.698-1.566-1.567V55.701c0-0.869,0.697-1.566,1.566-1.566h5.029c0.869,0,1.567,0.698,1.567,1.566v1.762
	c0.66-0.673,1.4-1.272,2.233-1.799c2.185-1.371,4.81-2.068,7.789-2.068c3.078,0,5.728,0.747,7.87,2.221
	c1.407,0.973,2.588,2.221,3.536,3.727c1.017-1.493,2.326-2.741,3.91-3.727c2.368-1.475,5.214-2.221,8.476-2.221
	c4.351,0,7.839,1.401,10.378,4.167c2.497,2.729,3.764,6.627,3.764,11.583v27.75C502.118,97.966,501.421,98.664,500.552,98.664z
	 M496.861,95.531h2.124V69.347c0-4.149-0.991-7.337-2.943-9.466c-1.94-2.117-4.584-3.151-8.065-3.151
	c-2.662,0-4.957,0.587-6.816,1.75c-1.487,0.924-2.626,2.105-3.452,3.592c0.741-0.893,1.635-1.652,2.669-2.252
	c1.694-0.991,3.714-1.493,5.996-1.493c3.164,0,5.734,0.967,7.631,2.882c1.897,1.916,2.857,4.675,2.857,8.212V95.531z
	 M472.997,95.531h2.123V69.958c0-2.197,0.44-4.186,1.31-5.923c0.006-0.006,0.006-0.012,0.012-0.024
	c-0.765,0.422-2.172,0.049-2.502-0.802c-0.826-2.081-2.057-3.702-3.666-4.81s-3.653-1.67-6.089-1.67
	c-2.386,0-4.442,0.538-6.125,1.591c-1.132,0.71-2.031,1.597-2.717,2.68c0.459-0.398,0.948-0.752,1.469-1.071
	c3.427-2.099,8.145-2.074,11.314-0.275c1.585,0.906,2.814,2.191,3.646,3.837c0.814,1.584,1.225,3.427,1.225,5.477V95.531z
	 M449.132,95.531h2.123V70.717c0-2.356,0.489-4.491,1.456-6.346c0.129-0.238,0.258-0.477,0.398-0.704c-0.019,0-0.037,0-0.056,0
	h-0.459c-0.862,0-1.566-0.698-1.566-1.566v-4.834h-1.896V95.531z"/>
<path d="M292.412,127.173c-0.731-0.96-1.707-1.697-2.931-2.215c-1.218-0.511-2.595-0.771-4.118-0.771
	c-1.609,0-3.039,0.275-4.293,0.835c-1.255,0.557-2.23,1.328-2.928,2.325c-0.698,0.994-1.047,2.099-1.047,3.329
	c0,1.677,0.661,3.017,1.982,4.011c1.316,1.001,3.005,1.784,5.055,2.338l3.69,1.034c2.854,0.823,5.188,1.952,7.013,3.396
	c1.82,1.443,2.729,3.509,2.729,6.201c0,1.934-0.499,3.666-1.499,5.201c-1.001,1.533-2.441,2.738-4.32,3.614
	c-1.879,0.881-4.088,1.318-6.627,1.318c-2.411,0-4.528-0.404-6.349-1.202c-1.82-0.805-3.253-1.928-4.293-3.372
	s-1.628-3.118-1.759-5.018h3.592c0.113,1.358,0.566,2.527,1.353,3.494c0.786,0.964,1.829,1.701,3.124,2.196
	c1.297,0.502,2.741,0.753,4.332,0.753c1.737,0,3.295-0.294,4.675-0.875c1.377-0.581,2.448-1.401,3.219-2.473
	c0.771-1.064,1.16-2.298,1.16-3.689c0-1.655-0.628-2.962-1.882-3.923c-1.255-0.96-3.091-1.783-5.501-2.475l-4.229-1.23
	c-2.907-0.868-5.116-2.05-6.634-3.54c-1.518-1.496-2.276-3.365-2.276-5.611c0-1.902,0.521-3.589,1.552-5.066
	c1.034-1.475,2.447-2.625,4.243-3.442c1.796-0.822,3.801-1.232,6.016-1.232c2.196,0,4.167,0.403,5.905,1.221
	c1.737,0.811,3.111,1.934,4.121,3.365c1.007,1.438,1.554,3.057,1.637,4.858h-3.445C293.563,129.251,293.141,128.134,292.412,127.173
	z"/>
<path d="M285.118,158.804c-2.539,0-4.81-0.438-6.756-1.288c-1.982-0.875-3.564-2.123-4.705-3.711
	c-1.15-1.589-1.806-3.455-1.949-5.535c-0.019-0.285,0.079-0.561,0.272-0.762c0.189-0.205,0.459-0.321,0.737-0.321h3.592
	c0.523,0,0.964,0.403,1.007,0.927c0.098,1.163,0.468,2.13,1.129,2.94c0.673,0.823,1.582,1.459,2.704,1.891
	c2.451,0.951,5.862,0.905,8.249-0.107c1.215-0.514,2.13-1.208,2.797-2.135c0.648-0.896,0.964-1.909,0.964-3.097
	c0-1.334-0.483-2.359-1.487-3.118c-1.145-0.881-2.882-1.658-5.158-2.307l-4.241-1.233c-3.054-0.914-5.428-2.19-7.056-3.79
	c-1.707-1.68-2.576-3.815-2.576-6.331c0-2.099,0.582-4.005,1.732-5.645c1.138-1.622,2.701-2.897,4.653-3.785
	c3.834-1.75,9.035-1.756,12.768-0.012c1.891,0.887,3.415,2.136,4.522,3.705c1.059,1.515,1.664,3.228,1.799,5.101
	c0.037,0.106,0.062,0.223,0.062,0.339c0,0.569-0.429,1.059-1.034,1.013c-0.006,0-0.013,0-0.019,0h-3.445
	c-0.523,0-0.961-0.397-1.01-0.921c-0.098-1.095-0.443-2.019-1.064-2.833c-0.624-0.826-1.45-1.45-2.515-1.896
	c-2.24-0.952-5.428-0.909-7.612,0.052c-1.093,0.489-1.916,1.139-2.509,1.985c-0.579,0.826-0.863,1.726-0.863,2.748
	c0,1.353,0.521,2.401,1.582,3.206c1.215,0.921,2.796,1.652,4.709,2.17l3.698,1.034c2.978,0.859,5.456,2.062,7.368,3.579
	c2.065,1.634,3.111,3.99,3.111,6.991c0,2.124-0.557,4.063-1.664,5.755c-1.099,1.687-2.692,3.026-4.736,3.975
	C290.173,158.326,287.799,158.804,285.118,158.804z M273.858,149.206c0.232,1.272,0.713,2.417,1.438,3.417
	c0.93,1.288,2.233,2.313,3.883,3.038c1.683,0.744,3.681,1.117,5.938,1.117c2.38,0,4.467-0.41,6.198-1.221
	c1.701-0.793,3.011-1.888,3.898-3.25c0.902-1.383,1.34-2.9,1.34-4.65c0-2.387-0.768-4.154-2.35-5.409
	c-1.707-1.353-3.947-2.433-6.661-3.216l-3.684-1.028c-2.157-0.587-3.975-1.435-5.394-2.509c-1.579-1.193-2.381-2.814-2.381-4.818
	c0-1.432,0.413-2.748,1.23-3.91c0.795-1.142,1.921-2.038,3.341-2.671c2.692-1.19,6.462-1.23,9.219-0.07
	c1.383,0.587,2.506,1.44,3.338,2.539c0.667,0.869,1.113,1.863,1.337,2.956h1.453c-0.198-1.19-0.643-2.268-1.343-3.269
	c-0.902-1.275-2.154-2.301-3.724-3.031c-3.197-1.503-7.771-1.496-11.072,0.018c-1.619,0.737-2.91,1.778-3.834,3.1
	c-0.921,1.319-1.371,2.787-1.371,4.488c0,1.979,0.648,3.58,1.977,4.893c1.393,1.364,3.482,2.476,6.211,3.292l4.223,1.224
	c2.558,0.731,4.464,1.601,5.831,2.641c1.512,1.157,2.283,2.751,2.283,4.73c0,1.606-0.456,3.044-1.353,4.28
	c-0.875,1.215-2.103,2.16-3.647,2.814c-2.866,1.215-6.829,1.273-9.763,0.132c-1.453-0.557-2.646-1.404-3.546-2.503
	c-0.726-0.896-1.212-1.942-1.444-3.123H273.858z"/>
<path d="M314.592,133.335h-5.611v16.733c0,1.572,0.36,2.687,1.083,3.344c0.722,0.655,1.658,0.982,2.806,0.982l1.229-0.046
	c0.264-0.033,0.591-0.052,0.985-0.052v3.148c-1.083,0.098-1.922,0.149-2.509,0.149c-1.199,0-2.338-0.26-3.408-0.776
	c-1.077-0.518-1.94-1.276-2.598-2.283c-0.655-1.013-0.982-2.221-0.982-3.632v-17.568h-3.983v-2.852h3.983v-6.4h3.394v6.4h5.611
	V133.335z"/>
<path d="M312.575,158.602c-1.353,0-2.644-0.294-3.849-0.875c-1.239-0.591-2.249-1.483-3.005-2.646
	c-0.759-1.169-1.145-2.576-1.145-4.177v-16.556h-2.974c-0.561,0-1.013-0.452-1.013-1.013v-2.852c0-0.56,0.452-1.009,1.013-1.009
	h2.974v-5.392c0-0.557,0.45-1.007,1.01-1.007h3.394c0.56,0,1.013,0.45,1.013,1.007v5.392h4.599c0.557,0,1.009,0.449,1.009,1.009
	v2.852c0,0.561-0.452,1.013-1.009,1.013h-4.599v15.721c0,0.869,0.128,2.031,0.752,2.595c0.532,0.483,1.228,0.719,2.124,0.719
	l1.189-0.046c0.205-0.027,0.579-0.052,1.025-0.052c0.557,0,1.01,0.456,1.01,1.013v3.148c0,0.523-0.397,0.961-0.921,1.007
	C314.05,158.556,313.184,158.602,312.575,158.602z M302.613,132.322h2.974c0.557,0,1.01,0.456,1.01,1.013v17.568
	c0,1.221,0.27,2.228,0.82,3.078c0.557,0.856,1.272,1.49,2.188,1.928c0.927,0.45,1.931,0.673,2.971,0.673
	c0.386,0,0.887-0.021,1.496-0.07v-1.156l-1.163,0.052c-0.003,0-0.003,0-0.003,0c-1.444,0-2.612-0.419-3.524-1.248
	c-0.937-0.851-1.414-2.228-1.414-4.091v-16.733c0-0.557,0.456-1.013,1.014-1.013h4.598v-0.826h-4.598
	c-0.558,0-1.014-0.455-1.014-1.013v-5.388h-1.37v5.388c0,0.558-0.453,1.013-1.01,1.013h-2.974V132.322z"/>
<path d="M337.566,130.483h3.347v26.714h-3.347v-4.424h-0.245c-0.637,1.426-1.646,2.579-3.023,3.457
	c-1.38,0.875-3.01,1.313-4.895,1.313c-1.726,0-3.25-0.379-4.577-1.145c-1.328-0.759-2.368-1.875-3.115-3.344
	c-0.746-1.466-1.12-3.234-1.12-5.306v-17.266h3.396v17.024c0,1.346,0.27,2.527,0.813,3.558c0.542,1.022,1.295,1.817,2.265,2.381
	c0.967,0.569,2.074,0.851,3.316,0.851c1.218,0,2.374-0.291,3.47-0.872c1.102-0.581,1.995-1.435,2.684-2.555
	c0.688-1.129,1.031-2.457,1.031-3.999V130.483z"/>
<path d="M329.403,158.556c-1.897,0-3.604-0.432-5.079-1.275c-1.499-0.86-2.681-2.124-3.513-3.764
	c-0.817-1.606-1.229-3.546-1.229-5.768v-17.266c0-0.56,0.452-1.009,1.009-1.009h3.396c0.56,0,1.01,0.449,1.01,1.009v17.024
	c0,1.175,0.235,2.209,0.697,3.084c0.456,0.862,1.071,1.508,1.879,1.985c1.612,0.945,3.886,0.973,5.808-0.046
	c0.945-0.502,1.694-1.215,2.294-2.19c0.588-0.958,0.882-2.13,0.882-3.47v-16.388c0-0.56,0.452-1.009,1.01-1.009h3.347
	c0.56,0,1.01,0.449,1.01,1.009v26.714c0,0.566-0.45,1.013-1.01,1.013h-3.347c-0.558,0-1.01-0.446-1.01-1.013v-1.512
	c-0.502,0.523-1.074,0.988-1.717,1.398C333.301,158.061,331.472,158.556,329.403,158.556z M321.604,131.496v16.253
	c0,1.9,0.34,3.528,1.01,4.853c0.661,1.301,1.549,2.255,2.714,2.922c1.169,0.667,2.54,1.007,4.076,1.007
	c1.677,0,3.145-0.386,4.351-1.156c0.961-0.609,1.701-1.353,2.245-2.249c-0.501,0.471-1.062,0.869-1.673,1.19
	c-2.524,1.34-5.565,1.294-7.774,0.006c-1.126-0.661-2.02-1.601-2.644-2.784c-0.618-1.169-0.931-2.527-0.931-4.029v-16.012H321.604z
	 M338.579,156.19h1.324v-24.694h-1.324v15.375c0,1.72-0.396,3.243-1.185,4.528c-0.079,0.125-0.159,0.251-0.245,0.379
	c0.056-0.012,0.117-0.018,0.172-0.018h0.245c0.563,0,1.013,0.455,1.013,1.013V156.19z"/>
<path d="M352.047,156.02c-1.664-1.145-2.962-2.77-3.889-4.858c-0.924-2.093-1.389-4.504-1.389-7.242s0.465-5.156,1.389-7.252
	c0.927-2.086,2.228-3.705,3.898-4.855c1.677-1.15,3.604-1.72,5.782-1.72c3.775,0,6.48,1.79,8.12,5.361h0.245v-13.879h3.396v35.623
	h-3.299v-4.822h-0.343c-1.674,3.58-4.394,5.364-8.169,5.364C355.627,157.739,353.709,157.17,352.047,156.02z M362.563,153.36
	c1.214-0.915,2.142-2.199,2.78-3.833c0.64-1.644,0.958-3.525,0.958-5.661c0-2.117-0.312-3.983-0.945-5.599
	c-0.634-1.612-1.555-2.87-2.769-3.775c-1.212-0.903-2.662-1.353-4.354-1.353c-1.704,0-3.166,0.468-4.378,1.398
	c-1.215,0.939-2.133,2.215-2.754,3.827c-0.624,1.615-0.937,3.451-0.937,5.501c0,2.065,0.315,3.92,0.946,5.56
	c0.633,1.64,1.557,2.94,2.769,3.889s2.665,1.426,4.354,1.426C359.907,154.74,361.352,154.281,362.563,153.36z"/>
<path d="M357.79,158.752c-2.362,0-4.488-0.64-6.318-1.9c-1.812-1.248-3.237-3.026-4.237-5.281c-0.979-2.209-1.475-4.788-1.475-7.651
	c0-2.873,0.495-5.449,1.475-7.658c1-2.259,2.43-4.03,4.253-5.284c1.836-1.261,3.978-1.897,6.352-1.897
	c3.084,0,5.547,1.087,7.355,3.237v-10.742c0-0.557,0.453-1.007,1.01-1.007h3.396c0.557,0,1.009,0.45,1.009,1.007v35.623
	c0,0.566-0.452,1.013-1.009,1.013h-3.299c-0.557,0-1.01-0.446-1.01-1.013v-1.83C363.456,157.619,360.941,158.752,357.79,158.752z
	 M357.839,131.099c-1.988,0-3.692,0.505-5.207,1.548c-1.512,1.034-2.705,2.524-3.55,4.431c-0.862,1.949-1.3,4.253-1.3,6.842
	c0,2.582,0.438,4.883,1.3,6.829c0.848,1.915,2.038,3.405,3.537,4.436c1.487,1.031,3.225,1.549,5.171,1.549
	c3.065,0,5.299-1.288,6.813-3.932c-0.432,0.514-0.908,0.973-1.429,1.364c-1.389,1.053-3.05,1.588-4.941,1.588
	c-1.912,0-3.589-0.551-4.978-1.646c-1.353-1.059-2.393-2.509-3.091-4.314c-0.67-1.75-1.009-3.745-1.009-5.927
	c0-2.169,0.336-4.136,1.003-5.862c0.686-1.783,1.72-3.219,3.078-4.265c1.389-1.071,3.072-1.612,4.996-1.612
	c1.903,0,3.571,0.526,4.96,1.554c0.508,0.38,0.976,0.817,1.396,1.313C363.104,132.375,360.887,131.099,357.839,131.099z
	 M367.314,156.19h1.276v-33.604h-1.377v12.866c0,0.56-0.45,1.006-1.01,1.006h-0.245c-0.135,0-0.27-0.021-0.386-0.073
	c0.272,0.472,0.515,0.979,0.726,1.515c0.673,1.726,1.016,3.732,1.016,5.966c0,2.249-0.346,4.274-1.028,6.024
	c-0.217,0.563-0.468,1.08-0.749,1.57c0.128-0.059,0.272-0.092,0.422-0.092h0.343c0.563,0,1.013,0.449,1.013,1.006V156.19z
	 M358.233,134.146c-1.49,0-2.72,0.392-3.76,1.199c-1.059,0.811-1.879,1.955-2.43,3.387c-0.575,1.49-0.869,3.219-0.869,5.134
	c0,1.934,0.297,3.681,0.882,5.195c0.563,1.463,1.383,2.625,2.447,3.458c1.04,0.813,2.258,1.208,3.729,1.208
	c1.46,0,2.678-0.379,3.718-1.172c1.059-0.802,1.885-1.939,2.451-3.396c0.59-1.518,0.89-3.299,0.89-5.294
	c0-1.979-0.294-3.741-0.878-5.231c-0.557-1.426-1.374-2.549-2.426-3.332C360.941,134.528,359.712,134.146,358.233,134.146z"/>
<path d="M377.668,167.141l0.049-3.004l1.625,0.052c0.707,0,1.322-0.086,1.845-0.257c0.526-0.175,1.05-0.56,1.576-1.156
	c0.523-0.6,1.01-1.509,1.45-2.724l0.937-2.606l-9.843-26.962h3.641l7.777,22.388h0.245l7.823-22.388h3.592l-11.269,30.851
	c-0.737,1.985-1.729,3.467-2.977,4.437c-1.245,0.979-2.781,1.469-4.602,1.469C378.883,167.239,378.262,167.205,377.668,167.141z"/>
<path d="M379.538,168.252c-0.691,0-1.353-0.034-1.979-0.104c-0.518-0.058-0.909-0.502-0.903-1.024l0.049-2.996
	c0.007-0.271,0.12-0.529,0.318-0.722c0.19-0.184,0.404-0.303,0.729-0.275l1.625,0.046c0.56,0,1.073-0.067,1.496-0.205
	c0.343-0.11,0.734-0.41,1.132-0.866c0.44-0.505,0.862-1.31,1.261-2.398l0.811-2.255l-9.718-26.618
	c-0.113-0.31-0.066-0.661,0.12-0.928c0.189-0.269,0.501-0.431,0.829-0.431h3.641c0.432,0,0.816,0.271,0.958,0.679l6.945,19.998
	l6.987-20.004c0.142-0.401,0.526-0.673,0.955-0.673h3.592c0.331,0,0.64,0.162,0.829,0.431c0.187,0.272,0.235,0.618,0.119,0.928
	l-11.265,30.847c-0.809,2.16-1.916,3.803-3.308,4.893C383.338,167.688,381.582,168.252,379.538,168.252z M378.696,166.208
	c0.272,0.012,0.554,0.019,0.842,0.019c1.603,0,2.903-0.41,3.978-1.249c1.092-0.851,1.982-2.199,2.655-3.999l10.77-29.482h-1.432
	l-7.588,21.708c-0.141,0.404-0.52,0.68-0.951,0.68h-0.245c-0.432,0-0.816-0.275-0.957-0.68l-7.539-21.708h-1.475l9.344,25.604
	c0.079,0.227,0.079,0.468,0.003,0.691l-0.934,2.606c-0.489,1.34-1.027,2.335-1.643,3.038c-0.646,0.737-1.328,1.225-2.022,1.457
	c-0.627,0.201-1.353,0.309-2.16,0.309l-0.63-0.021L378.696,166.208z"/>
<path d="M426.665,128.428c-0.988-1.27-2.236-2.261-3.739-2.974c-1.496-0.713-3.136-1.071-4.91-1.071
	c-2.258,0-4.309,0.581-6.138,1.744c-1.827,1.169-3.271,2.882-4.326,5.144c-1.059,2.261-1.591,4.972-1.591,8.12
	c0,3.145,0.532,5.85,1.591,8.117c1.056,2.261,2.499,3.978,4.326,5.14c1.829,1.166,3.88,1.747,6.138,1.747
	c1.774,0,3.414-0.354,4.91-1.067c1.503-0.716,2.751-1.704,3.739-2.978c0.997-1.27,1.652-2.707,1.985-4.32h3.54
	c-0.397,2.216-1.239,4.214-2.533,5.979c-1.3,1.771-2.946,3.164-4.947,4.171c-2.001,1.01-4.229,1.515-6.694,1.515
	c-2.999,0-5.673-0.747-8.017-2.249c-2.35-1.503-4.183-3.638-5.501-6.41c-1.321-2.775-1.982-5.99-1.982-9.644
	c0-3.659,0.661-6.872,1.982-9.645c1.318-2.774,3.151-4.907,5.501-6.409c2.344-1.503,5.018-2.252,8.017-2.252
	c2.466,0,4.693,0.502,6.694,1.502c2.001,1.004,3.647,2.384,4.932,4.143c1.288,1.763,2.139,3.77,2.549,6.019h-3.54
	C428.317,131.139,427.662,129.7,426.665,128.428z"/>
<path d="M418.016,158.706c-3.183,0-6.064-0.812-8.561-2.411c-2.5-1.601-4.474-3.896-5.869-6.829
	c-1.383-2.889-2.08-6.284-2.08-10.075c0-3.794,0.697-7.188,2.08-10.082c1.396-2.928,3.369-5.226,5.869-6.825
	c2.496-1.598,5.378-2.411,8.561-2.411c2.606,0,5.012,0.541,7.147,1.606c2.135,1.07,3.919,2.572,5.296,4.454
	c1.315,1.806,2.218,3.877,2.674,6.156c0.07,0.138,0.11,0.294,0.11,0.459c0,0.56-0.456,1.01-1.013,1.01c-0.013,0-0.024,0-0.04,0
	h-3.54c-0.483,0-0.896-0.334-0.994-0.808c-0.294-1.45-0.899-2.76-1.784-3.901c-0.893-1.138-2.031-2.041-3.377-2.687
	c-1.353-0.64-2.861-0.967-4.479-0.967c-2.057,0-3.941,0.529-5.593,1.582c-1.655,1.059-2.986,2.646-3.956,4.718
	c-0.992,2.117-1.493,4.709-1.493,7.695c0,2.979,0.501,5.568,1.493,7.686c0.97,2.077,2.301,3.665,3.956,4.718
	c1.651,1.056,3.536,1.588,5.593,1.588c1.612,0,3.121-0.321,4.479-0.967c1.352-0.643,2.484-1.545,3.377-2.687
	c0.885-1.138,1.49-2.457,1.784-3.9c0.098-0.472,0.511-0.805,0.994-0.805h3.54c0.297,0,0.581,0.131,0.777,0.354
	c0.189,0.232,0.27,0.535,0.217,0.829c-0.419,2.365-1.334,4.52-2.717,6.4c-1.38,1.892-3.17,3.399-5.299,4.477
	C423.033,158.158,420.628,158.706,418.016,158.706z M418.016,122.098c-2.791,0-5.306,0.703-7.472,2.09
	c-2.179,1.392-3.904,3.405-5.134,5.99c-1.249,2.622-1.882,5.725-1.882,9.213c0,3.491,0.633,6.587,1.882,9.206
	c1.229,2.589,2.955,4.602,5.134,5.994c2.166,1.389,4.681,2.09,7.472,2.09c2.291,0,4.394-0.472,6.238-1.405
	c1.848-0.933,3.391-2.233,4.586-3.86c0.961-1.316,1.665-2.778,2.09-4.373h-1.483c-0.404,1.438-1.064,2.757-1.979,3.929
	c-1.09,1.39-2.47,2.487-4.104,3.271c-1.634,0.776-3.43,1.165-5.348,1.165c-2.448,0-4.693-0.643-6.68-1.903
	c-1.985-1.267-3.567-3.142-4.702-5.571c-1.117-2.387-1.683-5.263-1.683-8.542c0-3.28,0.565-6.159,1.683-8.552
	c1.135-2.43,2.717-4.299,4.702-5.563c1.979-1.267,4.231-1.906,6.68-1.906c1.924,0,3.721,0.392,5.348,1.169
	c1.634,0.777,3.014,1.875,4.104,3.268c0.915,1.175,1.575,2.49,1.979,3.929h1.483c-0.438-1.615-1.144-3.094-2.107-4.406
	c-1.178-1.621-2.714-2.919-4.563-3.837C422.409,122.565,420.307,122.098,418.016,122.098z"/>
<path d="M439.583,144.038c1.777-1.248,4.173-1.989,7.171-2.236c1.15-0.083,2.421-0.162,3.825-0.236
	c1.404-0.076,2.588-0.135,3.555-0.187v-2.53c0-1.808-0.563-3.216-1.686-4.234c-1.12-1.013-2.726-1.526-4.81-1.526
	c-1.72,0-3.151,0.37-4.293,1.102c-1.138,0.725-1.875,1.707-2.203,2.939h-3.493c0.187-1.397,0.73-2.625,1.64-3.695
	c0.908-1.065,2.102-1.888,3.58-2.47c1.475-0.584,3.13-0.872,4.965-0.872c1.543,0,3.039,0.264,4.495,0.799
	c1.45,0.529,2.668,1.472,3.665,2.815c0.988,1.346,1.49,3.157,1.49,5.437v18.055h-3.351v-4.131h-0.195
	c-0.621,1.313-1.634,2.43-3.026,3.351c-1.392,0.915-3.124,1.374-5.188,1.374c-1.641,0-3.13-0.321-4.464-0.961
	c-1.344-0.64-2.396-1.566-3.18-2.778c-0.773-1.215-1.165-2.658-1.165-4.329C436.915,147.18,437.805,145.286,439.583,144.038z
	 M441.908,153.486c1.098,0.868,2.53,1.3,4.305,1.3c1.594,0,2.986-0.346,4.183-1.04c1.196-0.704,2.123-1.64,2.769-2.821
	c0.648-1.178,0.97-2.484,0.97-3.91v-2.854l-6.887,0.496c-2.347,0.165-4.097,0.682-5.254,1.575c-1.156,0.882-1.731,2.093-1.731,3.635
	S440.81,152.617,441.908,153.486z"/>
<path d="M445.724,158.804c-1.784,0-3.437-0.358-4.901-1.059c-1.503-0.719-2.711-1.777-3.593-3.148
	c-0.881-1.368-1.327-3.008-1.327-4.874c0-2.882,1.04-5.073,3.099-6.514c1.922-1.34,4.501-2.157,7.671-2.414
	c1.169-0.089,2.444-0.162,3.855-0.239l2.594-0.138v-1.569c0-1.521-0.44-2.658-1.352-3.481c-0.925-0.839-2.313-1.267-4.131-1.267
	c-1.512,0-2.778,0.318-3.745,0.939c-0.933,0.593-1.509,1.358-1.771,2.347c-0.116,0.443-0.521,0.749-0.979,0.749h-3.493
	c-0.288,0-0.563-0.122-0.753-0.34c-0.196-0.22-0.288-0.514-0.248-0.801c0.208-1.582,0.835-3.002,1.869-4.217
	c1.02-1.19,2.359-2.117,3.984-2.757c2.922-1.156,6.776-1.327,10.173-0.079c1.634,0.597,3.02,1.661,4.131,3.163
	c1.122,1.521,1.686,3.55,1.686,6.037v18.055c0,0.566-0.45,1.013-1.007,1.013h-3.351c-0.557,0-1.013-0.446-1.013-1.013v-1.275
	c-0.483,0.483-1.034,0.93-1.648,1.334C449.912,158.286,447.979,158.804,445.724,158.804z M447.639,132.081
	c2.338,0,4.177,0.6,5.489,1.783c1.34,1.215,2.019,2.889,2.019,4.984v2.53c0,0.542-0.425,0.985-0.96,1.01l-3.55,0.189
	c-1.398,0.067-2.671,0.15-3.809,0.229c-2.797,0.229-5.039,0.921-6.664,2.06c-1.509,1.053-2.236,2.641-2.236,4.855
	c0,1.469,0.339,2.741,1.006,3.781c0.686,1.065,1.588,1.852,2.757,2.418c1.196,0.568,2.549,0.856,4.033,0.856
	c1.851,0,3.411-0.404,4.632-1.209c1.013-0.667,1.796-1.45,2.341-2.341c-0.518,0.536-1.117,0.995-1.79,1.387
	c-1.347,0.789-2.928,1.184-4.693,1.184c-1.998,0-3.653-0.511-4.933-1.518c-1.346-1.07-2.031-2.555-2.031-4.415
	c0-1.863,0.713-3.359,2.13-4.439c1.327-1.013,3.222-1.6,5.795-1.783l6.893-0.49c0.27-0.024,0.551,0.08,0.759,0.27
	c0.202,0.189,0.321,0.462,0.321,0.737v2.854c0,1.595-0.373,3.072-1.098,4.4c-0.132,0.235-0.27,0.468-0.426,0.691
	c0.603-0.196,1.523,0.293,1.523,0.96v3.124h1.325v-17.048c0-2.05-0.438-3.672-1.294-4.834c-0.882-1.196-1.928-2.001-3.2-2.47
	c-2.929-1.073-6.261-0.914-8.742,0.064c-1.309,0.518-2.38,1.255-3.182,2.188c-0.523,0.621-0.908,1.288-1.145,2.025h1.509
	c0.465-1.135,1.267-2.064,2.384-2.781C444.102,132.503,445.729,132.081,447.639,132.081z M453.121,145.246l-5.804,0.416
	c-2.136,0.15-3.718,0.609-4.709,1.368c-0.902,0.691-1.34,1.618-1.34,2.836c0,1.228,0.416,2.154,1.267,2.827
	c0.909,0.719,2.145,1.086,3.678,1.086c1.404,0,2.641-0.303,3.672-0.908c1.052-0.609,1.832-1.404,2.393-2.43
	c0.563-1.021,0.844-2.178,0.844-3.427V145.246z"/>
<path d="M475.931,133.335h-5.901v23.862h-3.345v-23.862h-4.137v-2.852h4.137v-3.84c0-2.099,0.615-3.744,1.857-4.94
	c1.239-1.196,2.946-1.796,5.128-1.796c0.851,0,1.771,0.098,2.757,0.293v2.999c-0.523-0.092-1.215-0.145-2.065-0.145
	c-1.48,0-2.573,0.343-3.273,1.041c-0.71,0.7-1.059,1.777-1.059,3.24v3.147h5.901V133.335z"/>
<path d="M470.029,158.21h-3.345c-0.557,0-1.013-0.446-1.013-1.013v-22.85h-3.124c-0.56,0-1.007-0.452-1.007-1.013v-2.852
	c0-0.56,0.447-1.009,1.007-1.009h3.124v-2.831c0-2.377,0.731-4.28,2.163-5.672c1.961-1.895,4.938-2.533,8.787-1.763
	c0.472,0.092,0.812,0.508,0.812,0.991v2.999c0,0.303-0.132,0.584-0.361,0.776c-0.232,0.193-0.529,0.27-0.829,0.218
	c-0.469-0.086-1.099-0.126-1.882-0.126c-1.196,0-2.063,0.251-2.567,0.747c-0.502,0.502-0.752,1.346-0.752,2.521v2.139h4.889
	c0.561,0,1.013,0.449,1.013,1.009v2.852c0,0.561-0.452,1.013-1.013,1.013h-4.889v22.85
	C471.042,157.764,470.586,158.21,470.029,158.21z M467.691,156.19h1.324v-22.855c0-0.557,0.453-1.013,1.014-1.013h4.895v-0.826
	h-4.895c-0.561,0-1.014-0.455-1.014-1.013v-3.147c0-1.732,0.459-3.069,1.355-3.953c0.9-0.888,2.24-1.341,3.99-1.341
	c0.379,0,0.731,0.01,1.053,0.028v-1.02c-2.791-0.4-4.822,0.07-6.169,1.377c-1.04,1.007-1.554,2.387-1.554,4.216v3.84
	c0,0.558-0.45,1.013-1.007,1.013h-3.124v0.826h3.124c0.557,0,1.007,0.456,1.007,1.013V156.19z"/>
<path d="M484.482,156.007c-1.848-1.156-3.268-2.771-4.271-4.846c-1-2.075-1.499-4.458-1.499-7.145c0-2.678,0.493-5.07,1.49-7.188
	c0.994-2.11,2.38-3.77,4.17-4.953c1.784-1.193,3.821-1.784,6.102-1.784c2.019,0,3.895,0.483,5.632,1.45
	c1.738,0.968,3.137,2.445,4.195,4.431c1.059,1.979,1.588,4.418,1.588,7.307v1.569H482.06c0.046,2.004,0.443,3.748,1.181,5.232
	c0.734,1.483,1.771,2.628,3.1,3.441c1.331,0.812,2.866,1.218,4.62,1.218c1.691,0,3.108-0.354,4.246-1.059
	c1.142-0.707,1.992-1.548,2.549-2.53h3.592c-0.397,1.242-1.07,2.365-2.031,3.366c-0.954,1-2.151,1.789-3.58,2.364
	c-1.426,0.575-3.02,0.857-4.775,0.857C488.487,157.739,486.327,157.164,484.482,156.007z M498.44,141.951
	c0-1.658-0.334-3.16-1.007-4.507c-0.673-1.34-1.609-2.398-2.814-3.157c-1.206-0.769-2.57-1.147-4.097-1.147
	c-1.576,0-2.986,0.392-4.234,1.181c-1.243,0.79-2.23,1.852-2.962,3.2c-0.731,1.347-1.145,2.818-1.242,4.431H498.44z"/>
<path d="M490.96,158.752c-2.653,0-5.019-0.634-7.013-1.888c-2.004-1.255-3.567-3.026-4.645-5.266
	c-1.064-2.203-1.604-4.758-1.604-7.582c0-2.815,0.532-5.376,1.588-7.612c1.068-2.279,2.589-4.088,4.522-5.37
	c1.948-1.3,4.188-1.955,6.664-1.955c2.178,0,4.24,0.529,6.122,1.576c1.902,1.064,3.451,2.687,4.596,4.84
	c1.135,2.124,1.71,4.739,1.71,7.784v1.569c0,0.56-0.456,1.013-1.013,1.013H483.13c0.132,1.417,0.478,2.684,1.013,3.764
	c0.661,1.324,1.555,2.319,2.721,3.032c1.168,0.716,2.545,1.07,4.097,1.07c1.489,0,2.741-0.303,3.717-0.908
	c0.985-0.609,1.726-1.341,2.194-2.17c0.184-0.314,0.517-0.511,0.884-0.511h3.592c0.321,0,0.621,0.156,0.812,0.413
	c0.189,0.26,0.247,0.594,0.149,0.902c-0.438,1.39-1.196,2.653-2.261,3.764c-1.053,1.102-2.371,1.974-3.932,2.601
	C494.573,158.442,492.842,158.752,490.96,158.752z M490.474,131.099c-2.068,0-3.932,0.545-5.545,1.615
	c-1.621,1.084-2.903,2.607-3.812,4.547c-0.928,1.968-1.393,4.241-1.393,6.756c0,2.518,0.472,4.776,1.398,6.71
	c0.915,1.885,2.225,3.378,3.895,4.424c1.674,1.047,3.675,1.582,5.942,1.582c1.624,0,3.103-0.267,4.402-0.789
	c1.288-0.518,2.371-1.236,3.222-2.124c0.496-0.517,0.909-1.067,1.233-1.661h-1.502c-0.628,0.915-1.49,1.713-2.573,2.38
	c-1.301,0.809-2.91,1.215-4.782,1.215c-1.934,0-3.666-0.459-5.149-1.367c-1.484-0.909-2.659-2.206-3.476-3.855
	c-0.799-1.612-1.236-3.516-1.288-5.657c-0.007-0.27,0.098-0.535,0.287-0.731c0.189-0.189,0.45-0.306,0.726-0.306h18.816v-0.557
	c0-2.711-0.489-5.006-1.469-6.835c-0.961-1.796-2.236-3.155-3.791-4.023C494.034,131.546,492.306,131.099,490.474,131.099z
	 M498.44,142.958h-16.356c-0.278,0-0.548-0.116-0.737-0.318c-0.19-0.202-0.294-0.478-0.272-0.753c0.104-1.75,0.565-3.384,1.364-4.85
	c0.805-1.492,1.922-2.695,3.311-3.573c2.778-1.75,6.646-1.784,9.411-0.037c1.358,0.863,2.424,2.063,3.176,3.568
	c0.744,1.48,1.117,3.142,1.117,4.956C499.453,142.508,499,142.958,498.44,142.958z M483.216,140.938h14.166
	c-0.11-1.102-0.392-2.117-0.851-3.038c-0.588-1.175-1.41-2.102-2.451-2.763c-2.129-1.34-5.115-1.307-7.251,0.04
	c-1.092,0.691-1.974,1.64-2.613,2.826C483.724,138.907,483.387,139.889,483.216,140.938z"/>
</svg>
